<svg width="48" height="48" viewBox="0 0 48 48" fill="none" xmlns="http://www.w3.org/2000/svg">
    <g clip-path="url(#clip0_7_40)">
        <path fill-rule="evenodd" clip-rule="evenodd"
              d="M-1 19.058H11.1437C17.7595 19.7914 18.0471 28.2545 11.1437 28.9298H-1V19.058ZM5.10326 22.0499H8.61755C10.0057 22.8066 9.96822 25.17 8.61755 25.8333H5.10326V22.0499ZM15.0333 28.9298H21.0113L24.463 22.8532L26.0392 25.7173L23.5503 25.7288L21.9369 28.93L33.3926 29L28.3401 19H20.5111L15.0333 28.9298ZM34.0303 19.0697H48V22.271L39.796 22.2827V23.4817H47.825V26.6944L39.8332 26.683L39.8583 28.9881H34.018L34.0303 19.0697Z"
              fill="black"/>
    </g>
    <defs>
        <clipPath id="clip0_7_40">
            <rect width="48" height="48" fill="white"/>
        </clipPath>
    </defs>
</svg>
