<svg width="48" height="48" viewBox="0 0 48 48" fill="none" xmlns="http://www.w3.org/2000/svg">
<path d="M24 15C10.6916 15 0 18.9959 0 24C0 28.9668 10.7663 33 24 33C37.2336 33 47.9999 28.9668 47.9999 24C48.0373 19.0705 37.2336 15 24 15ZM24 32.2158C11.2897 32.2158 1.00934 28.556 1.00934 24C1.00934 19.4813 11.3271 15.7842 24 15.7842C36.7102 15.7842 46.9906 19.444 46.9906 24C47.0279 28.556 36.7102 32.2158 24 32.2158ZM33.4579 25.8299C33.4579 25.8672 33.4579 25.9046 33.4579 25.9046C33.4579 25.9419 33.5326 25.9793 33.57 26.0166C33.57 26.0166 33.6074 26.0539 33.57 26.0913C33.4205 26.4274 33.271 26.6141 33.084 26.8755C32.8971 27.1369 32.7102 27.3237 32.4859 27.5104C32.1495 27.8091 31.6261 28.1079 31.2149 27.9212C31.028 27.8091 30.9532 27.5851 30.9532 27.361C30.9532 26.8008 31.2149 26.2033 31.7009 25.6058C32.2616 24.8963 32.9345 24.5228 33.3457 24.7469C33.7943 24.9336 33.6822 25.4564 33.4579 25.8299ZM21.5701 22.0954C21.5327 21.8714 21.6074 21.61 21.8317 21.4232C21.9439 21.3112 22.0934 21.3112 22.2056 21.3859C22.3177 21.4606 22.2429 21.6846 22.1682 21.8714C22.056 22.0581 21.8691 22.2075 21.6822 22.2075C21.6074 22.1701 21.5701 22.1701 21.5701 22.0954ZM24 16.4938C11.7383 16.4938 1.79439 19.8921 1.79439 24.0373C1.79439 28.1452 11.7383 31.5436 24 31.5436C36.2616 31.5436 46.2055 28.1452 46.2055 24C46.2055 19.8548 36.2616 16.4938 24 16.4938ZM12.5981 28.9668C11.2897 28.9668 10.1308 28.1826 9.98129 26.7635C9.90652 25.9793 10.1308 25.3071 10.5794 24.7095C10.9532 24.1867 11.6261 23.7759 12.1869 23.6639C12.3738 23.6266 12.5981 23.6639 12.7103 23.7759C12.8598 23.9627 12.8224 24.1494 12.6729 24.2614C12.2617 24.4855 11.7383 24.8589 11.4766 25.3444C11.2523 25.7552 11.2149 26.278 11.5514 26.7261C12.0747 27.5104 13.5327 27.5477 14.9159 26.278C15.2523 25.9793 15.5514 25.6805 15.8504 25.3071C16.4486 24.6349 16.6355 24.3734 17.4579 23.2531V23.2158C17.4579 23.2158 17.4579 23.2158 17.4205 23.1784C16.8972 23.1784 16.4112 23.3651 15.9626 23.7012C15.8504 23.8133 15.6635 23.7759 15.5514 23.6639C15.4766 23.5145 15.514 23.3278 15.6635 23.2531C16.3738 22.7303 17.1962 22.6556 17.9813 22.5062C17.9813 22.5062 18.056 22.5062 18.0934 22.4315C18.4299 22.0207 18.6916 21.61 19.028 21.1992C19.4018 20.751 19.8504 20.3776 20.1869 20.0415C20.6729 19.6307 21.0093 19.4813 21.3084 19.2946C21.3831 19.2573 21.3084 19.1826 21.271 19.1826C19.4766 18.8465 17.6074 18.3983 15.8504 19.0705C14.6168 19.5187 14.0934 20.4896 14.3551 21.1618C14.542 21.61 15.1402 21.6846 15.7383 21.4232C16.2243 21.1992 16.6355 20.8257 16.9719 20.3402C17.1588 20.0788 17.4953 20.2656 17.3084 20.7137C16.785 21.9461 15.7757 22.917 14.5794 22.9544C13.5327 22.9917 12.8972 22.2448 12.8972 21.3112C12.8972 19.4813 14.9532 18.249 17.1215 18.0622C19.7383 17.8382 22.2056 18.5477 24.785 18.8465C26.7663 19.0705 28.6728 19.1079 30.6541 18.6224C30.8784 18.5851 31.0654 18.7344 31.028 18.9585C30.9906 19.2946 30.7289 19.6307 30.0934 20.0041C29.3457 20.4149 28.5607 20.527 27.7383 20.527C25.757 20.527 23.9252 19.7801 22.0186 19.3693C22.0186 19.444 22.056 19.556 21.9813 19.5934C20.9345 20.3776 19.9626 21.1618 19.3271 22.2448C19.2897 22.2822 19.3271 22.2822 19.3644 22.2822C19.9252 22.2448 20.4112 22.2448 20.9345 22.2075C21.0093 22.2075 21.0093 22.1701 21.0093 22.0954C20.9719 21.722 21.0841 21.2739 21.4205 20.9751C21.757 20.6763 22.2056 20.639 22.4672 20.8631C22.8037 21.1245 22.7663 21.5726 22.5794 21.9087C22.3925 22.2448 22.0934 22.4315 21.8317 22.5436C21.8317 22.5436 21.757 22.5436 21.7943 22.6183C21.7943 22.6929 22.2056 22.917 22.2429 22.9917C22.2803 23.029 22.2429 23.1411 22.2056 23.1784C22.1682 23.2158 22.0934 23.2531 22.0186 23.2531C21.9439 23.2531 21.9065 23.2158 21.8317 23.1784C21.6448 23.0664 21.4205 22.917 21.3084 22.7303C21.271 22.6556 21.2336 22.6556 21.1215 22.6556C20.5607 22.6929 19.7009 22.7676 19.1028 22.8423C18.9532 22.8423 18.9532 22.8797 18.9158 22.9544C17.9813 24.4855 16.9719 26.166 15.8504 27.2863C14.6542 28.6307 13.6448 28.9668 12.5981 28.9668ZM38.1308 21.4232C37.9438 21.722 34.4298 27.0996 34.2055 27.6224C34.1308 27.8091 34.1308 27.9212 34.2055 28.0332C34.3925 28.2946 34.8037 28.1452 35.0654 27.9585C35.813 27.4357 36.3364 26.8008 36.9345 26.2407C36.9719 26.2033 37.0093 26.2033 37.0467 26.2407C37.1214 26.3154 37.271 26.4274 37.3457 26.5021C37.3831 26.5394 37.3831 26.5768 37.3457 26.6141C36.785 27.3237 36.1495 27.9585 35.5513 28.444C34.6168 29.1535 33.6822 29.3402 33.1962 28.8921C33.0093 28.7054 32.9345 28.4813 32.9345 28.2573C32.9345 28.1452 32.8597 28.1452 32.8224 28.1826C32.2616 28.7427 31.2897 29.3402 30.4298 28.8921C29.6822 28.5187 29.5327 27.6598 29.6822 26.9129C29.6822 26.9129 29.6822 26.8008 29.57 26.8382C29.4205 26.9502 29.2336 27.0622 28.9719 27.1743C28.6728 27.2863 28.5233 27.3237 28.2242 27.3237C27.8504 27.3237 27.5513 27.1743 27.327 26.8008C27.2149 26.6141 27.1401 26.3154 27.1401 26.0913C27.1401 26.0539 27.1028 26.0166 27.0654 26.0913C26.4672 26.9876 25.9065 27.8838 25.3084 28.8174C25.271 28.8548 25.2336 28.8921 25.1962 28.8921C24.8224 28.8921 24.4112 28.8921 24.0373 28.8921C23.9626 28.8921 23.9252 28.8548 23.9626 28.7801C24.1869 28.3693 25.3084 26.7261 26.0934 25.3071C26.3177 24.9336 26.2803 24.7095 26.1308 24.6349C25.9813 24.5228 25.6448 24.6722 25.3457 24.8963C24.5981 25.4564 23.9626 26.3527 23.6261 26.7635C23.4392 26.9876 23.2523 27.361 22.7663 27.8838C21.9813 28.7427 20.9345 29.2282 19.9626 28.8921C19.4018 28.7054 19.028 28.2573 18.8785 27.7344C18.8411 27.6224 18.8037 27.5851 18.7289 27.6598C18.5794 27.8465 18.243 28.1452 17.9439 28.332C17.9065 28.3693 17.8317 28.4066 17.757 28.3693C17.6822 28.332 17.4953 28.0705 17.4579 27.9585C17.4205 27.8838 17.4579 27.8465 17.4953 27.8091C17.9065 27.473 18.0934 27.249 18.2803 27.0622C18.3925 26.9129 18.5046 26.7261 18.6168 26.4274C18.8411 25.8299 19.4018 24.7095 20.4859 24.112C20.8972 23.888 21.3084 23.7386 21.7943 23.6639C21.9813 23.6266 22.1682 23.6639 22.2056 23.8133C22.2429 23.888 22.2803 24.0373 22.3177 24.112C22.3551 24.1867 22.3177 24.2241 22.2429 24.2614C21.6074 24.5228 20.9719 24.8963 20.5233 25.4938C20 26.166 19.8878 26.9876 20.2243 27.4357C20.4859 27.7718 20.8598 27.8465 21.271 27.6971C21.8691 27.5104 22.3551 26.9876 22.6168 26.3527C22.8785 25.6805 22.9532 24.9336 22.7289 24.2241C22.6915 24.112 22.7289 24 22.8037 23.9627C22.9532 23.8506 23.1775 23.7386 23.2149 23.7012C23.3644 23.6266 23.514 23.6639 23.5887 23.7759C23.813 24.0747 23.9252 24.5228 23.9252 25.0083C23.9252 25.1203 23.9626 25.1203 24.0373 25.0456C24.4112 24.6349 24.785 24.2241 25.1588 23.888C25.5327 23.5892 26.0186 23.3651 26.4299 23.3651C26.9906 23.3651 27.2897 23.7759 27.2523 24.4481C27.2523 24.5228 27.327 24.5228 27.3644 24.4855C27.5513 24.2241 27.6635 24.112 27.8504 23.9627C28.2616 23.6266 28.6355 23.4772 29.0841 23.5145C29.6074 23.5519 30.0186 24.0373 29.9439 24.5602C29.9065 24.8963 29.6822 25.2324 29.3831 25.3817C29.1214 25.5311 28.785 25.4938 28.5607 25.3071C28.3738 25.1577 28.3364 24.8963 28.3738 24.6722C28.3738 24.6349 28.3364 24.5602 28.2616 24.6349C27.7383 25.1577 27.7009 25.8299 28.0373 26.166C28.4112 26.5021 28.9345 26.278 29.3457 26.0166C30.0934 25.5311 30.6541 24.8963 31.2897 24.3734C31.7383 24.0373 32.2242 23.7386 32.785 23.6639C33.084 23.6266 33.3831 23.6266 33.6822 23.7759C34.0934 23.9253 34.3177 24.2614 34.3551 24.5602C34.3551 24.6349 34.4298 24.6722 34.4672 24.5975C34.7663 24.112 36.4859 21.5726 36.6354 21.3112C36.6728 21.2365 36.7102 21.1992 36.8224 21.1992C37.1962 21.1992 37.6822 21.1992 38.0186 21.1992C38.1308 21.3485 38.1308 21.3859 38.1308 21.4232Z" fill="black"/>
</svg>
