<svg width="48" height="48" viewBox="0 0 48 48" fill="none" xmlns="http://www.w3.org/2000/svg">
<path fill-rule="evenodd" clip-rule="evenodd" d="M42.4297 21.6255C43.2133 21.6707 43.7788 22.2592 43.866 23.0288C43.9092 23.4361 43.9092 24.0701 43.9092 24.4771C43.9092 24.9754 43.9092 25.3827 43.866 25.7897C43.7356 26.7405 43.0829 27.2838 42.4297 27.2838H41.2985C40.689 27.2838 39.9926 26.7405 39.8621 25.7897C39.8184 25.3827 39.8184 24.9751 39.8184 24.5226C39.8184 24.0698 39.8184 23.4361 39.8621 23.0285C39.9494 22.2589 40.558 21.6704 41.3417 21.6252C41.5159 21.58 41.6463 21.58 41.8639 21.58L42.4297 21.6255ZM41.9946 19C42.8215 19 43.6052 19.0452 44.2578 19.1357C46.0854 19.3621 47.565 20.8558 47.8696 22.712C47.9133 23.0288 48 23.753 48 24.4771C48 25.2467 47.9133 25.9712 47.8696 26.2425C47.565 28.1442 46.0854 29.5924 44.2578 29.8643C43.6052 29.9093 42.8215 30 41.9946 30H41.7338C40.8632 30 40.1233 29.9093 39.4274 29.8643C37.5992 29.5924 36.1637 28.1442 35.8589 26.2425C35.8151 25.9712 35.7279 25.2467 35.7279 24.4771C35.7279 23.753 35.8151 23.0288 35.8589 22.712C36.1635 20.8558 37.5992 19.3621 39.4274 19.1357C40.1233 19.0452 40.8632 19 41.69 19H41.9946ZM26.2847 24.4771C26.2847 23.8886 26.3284 23.3005 26.4588 22.712C26.7634 20.8558 28.1998 19.3621 30.0274 19.1357C30.6801 19.0452 31.4637 19 32.2906 19C33.2041 19 34.031 19.0452 34.7274 19.1357C34.9882 19.1809 35.1624 19.4073 35.1624 19.6789V21.3084C35.1624 21.6252 34.9448 21.8516 34.6833 21.8516C34.6833 21.8516 33.8565 21.8064 33.4215 21.8064C32.8998 21.8064 32.4642 21.8064 31.9857 21.8516C31.202 21.8968 30.6366 22.4853 30.5494 23.2549C30.5056 23.6622 30.4621 24.0698 30.4621 24.4768V24.5223C30.4621 24.9299 30.5053 25.3369 30.5494 25.7445C30.6366 26.5141 31.1588 27.1023 31.9857 27.1927C32.4207 27.2383 32.943 27.2835 33.4215 27.2835C33.8565 27.2835 34.6833 27.2385 34.6833 27.2385C34.9448 27.2385 35.1624 27.465 35.1624 27.7818V29.4115C35.1624 29.6829 34.9882 29.9093 34.7274 29.9548C34.031 29.9548 33.2041 29.9997 32.2906 29.9997C31.4637 29.9997 30.6801 29.909 30.0274 29.864C28.1998 29.5921 26.7637 28.1439 26.4588 26.2422C26.3284 25.6995 26.2847 25.1108 26.2847 24.5226V24.4771ZM25.1097 27.1481C25.4143 27.1481 25.632 27.4194 25.632 27.6914V29.3211C25.632 29.6379 25.4143 29.8643 25.1097 29.8643H18.8867C18.618 29.8646 18.3519 29.8098 18.1036 29.703C17.8553 29.5962 17.6297 29.4395 17.4397 29.2418C17.2497 29.0442 17.0991 28.8095 16.9964 28.5512C16.8938 28.2929 16.8411 28.0161 16.8414 27.7366V21.3087C16.8411 21.0292 16.8938 20.7524 16.9965 20.4941C17.0992 20.2359 17.2498 20.0012 17.4398 19.8036C17.6298 19.606 17.8554 19.4493 18.1037 19.3425C18.3519 19.2357 18.618 19.1809 18.8867 19.1812H25.1097C25.4143 19.1812 25.632 19.4076 25.632 19.6792V21.2634C25.632 21.5803 25.4143 21.8067 25.1097 21.8067H21.2803C20.9757 21.8067 20.7581 21.9879 20.7581 22.3047V23.3005L24.0217 23.2552C24.2826 23.2552 24.544 23.5266 24.544 23.7982V25.1566C24.544 25.4728 24.2826 25.6998 24.0217 25.6998H20.7581V26.6049C20.7581 26.9217 20.9757 27.1481 21.2803 27.1481H25.1097ZM9.2696 29.864C8.35579 29.864 7.57213 29.2301 7.311 28.37L5.17879 19.8146V19.6789C5.17879 19.4073 5.39644 19.1809 5.70105 19.1809H8.87777C9.13889 19.1809 9.35655 19.3618 9.40002 19.5882L11.0537 26.7405C11.0537 26.8313 11.1407 26.9217 11.2714 26.9217C11.3583 26.9217 11.4453 26.831 11.4453 26.7405L13.1425 19.5882C13.1859 19.3618 13.4036 19.1809 13.6212 19.1809H15.4054C15.71 19.1809 15.9276 19.4073 15.9276 19.6789V19.8146L13.8824 28.1888C13.6647 29.1396 12.9248 29.864 11.8806 29.864H9.2696ZM0.522255 19.1809H3.61203C3.91663 19.1809 4.13428 19.4073 4.13428 19.6789V29.3208C4.13428 29.6376 3.91663 29.864 3.61203 29.864H0.522255C0.261128 29.864 0 29.6376 0 29.3208V19.6789C0.000284143 19.4073 0.261412 19.1809 0.522255 19.1809Z" fill="black"/>
</svg>
