<svg width="48" height="48" viewBox="0 0 48 48" fill="none" xmlns="http://www.w3.org/2000/svg">
<path d="M35.1796 30.5687H31.4368V37.9997H35.2114V34.647L39.6669 37.9997H43.4393V30.5687H39.664V33.9512L35.1796 30.5687ZM23.9998 11C10.7447 11 0 21.9246 0 35.4006C0 36.279 0.0457566 37.1455 0.134542 38H2.64792C2.54754 37.1373 2.49735 36.2693 2.49762 35.4006C2.49762 23.3271 12.1247 13.5393 23.9999 13.5393C35.8753 13.5393 45.5025 23.3271 45.5025 35.4006C45.5025 36.2804 45.4514 37.1476 45.3523 38H47.8655C47.9552 37.1365 48.0001 36.2689 48 35.4006C47.9995 21.9246 37.2546 11 23.9998 11ZM26.014 30.5687H22.0007L17.2441 37.9997H21.1399L21.6686 37.1683H26.3464L26.8754 37.9997H30.771L26.014 30.5687ZM25.102 35.1931H22.913L24.0075 33.4738L25.102 35.1931ZM8.03284 30.5687H4.49202V37.9997H8.26738V35.0612L10.5226 37.3537L12.7773 35.0612V37.9997H16.5525V30.5687H13.0116L10.5225 33.0997L8.03284 30.5687Z" fill="black"/>
</svg>
