<svg width="48" height="48" viewBox="0 0 48 48" fill="none" xmlns="http://www.w3.org/2000/svg">
<g clip-path="url(#clip0_7_53)">
<path d="M35.16 2.7C31.8 0.96 28.02 0 24 0C19.98 0 16.2 0.96 12.84 2.7C5.22 6.72 0 14.76 0 24C0 33.24 5.22 41.28 12.9 45.3C16.2 46.98 19.98 48 24 48C28.02 48 31.74 46.98 35.1 45.24C42.78 41.28 48 33.24 48 24C48 14.76 42.78 6.72 35.16 2.7ZM2.4 24C2.4 16.14 6.6 9.3 12.9 5.46C15.96 3.6 19.5 2.52 23.4 2.4L20.7 22.02L12.9 28.08L4.98 34.26C3.36 31.2 2.4 27.72 2.4 24ZM35.16 42.48C31.86 44.46 28.08 45.6 24 45.6C19.92 45.6 16.08 44.46 12.84 42.48C9.9 40.74 7.5 38.34 5.7 35.46L12.84 32.52L24 27.96L35.16 32.46L42.36 35.4C40.56 38.34 38.04 40.74 35.16 42.48ZM35.16 28.08L27.42 22.08L24.66 2.4C28.44 2.52 32.04 3.6 35.1 5.46C41.4 9.24 45.6 16.14 45.6 24C45.6 27.72 44.7 31.2 43.02 34.26L35.16 28.08Z" fill="black"/>
</g>
<defs>
<clipPath id="clip0_7_53">
<rect width="48" height="48" fill="white"/>
</clipPath>
</defs>
</svg>
