<svg width="48" height="48" viewBox="0 0 48 48" fill="none" xmlns="http://www.w3.org/2000/svg">
<path fill-rule="evenodd" clip-rule="evenodd" d="M30.755 25.4048C28.2031 30.8907 21.3057 43.6194 19.8747 46.0557C19.783 46.2093 19.7082 46.332 19.6516 46.4216C19.4393 46.7458 19.2559 46.9338 19.1009 46.9264C19.1009 46.9264 21.6508 42.2587 23.6432 37.2635C21.4027 33.1336 19.4757 29.3123 17.6254 25.3819C17.2938 24.6824 17.1354 24.3353 17.1374 23.9902V23.9896V23.9882C17.1381 23.6465 17.3032 23.3015 17.6301 22.5979C20.3081 16.8391 26.8652 4.48776 28.7646 1.54737C28.9857 1.205 29.1036 1.07696 29.262 1.07696C29.2674 1.07696 29.2715 1.07696 29.2769 1.07696C29.2769 1.07696 26.6292 6.03108 24.7399 10.7406C26.9804 14.8691 28.9149 18.6998 30.7665 22.6295C31.0941 23.3277 31.2545 23.6634 31.2545 24.0051C31.2545 24.3474 31.0826 24.6999 30.755 25.4048ZM43.063 22.7077C42.366 21.2534 40.1963 16.984 38.3575 13.6506C35.8366 9.08134 31.3354 1.55882 30.8245 0.872752C30.3196 0.195442 30.0365 0.165115 29.5694 0.116592L29.5006 0.108504C28.8199 0.0343709 25.9357 0 24.2 0C22.7137 0 19.5559 0.0384146 18.8205 0.111874C18.1276 0.180616 17.9402 0.392907 17.5452 0.909144C17.0019 1.61745 12.4259 9.35361 10.0425 13.6506C8.31829 16.7575 5.58911 22.1295 5.335 22.7077C5.1065 23.2293 5 23.6405 5 23.9997C5 24.3831 5.1065 24.7929 5.33635 25.2909C5.9086 26.5317 7.63414 29.9681 10.0425 34.348C12.5546 38.9173 17.0936 46.4688 17.5749 47.1259C18.0838 47.8207 18.4161 47.849 18.8758 47.8908C19.5741 47.9528 22.5877 48 24.2 48C25.941 48 29.0902 47.9306 29.5242 47.8908C29.9543 47.8517 30.3257 47.818 30.8245 47.1259C31.2821 46.4917 36.1642 38.3559 38.3575 34.348C40.4598 30.5079 42.794 25.8941 43.063 25.2909C43.3596 24.6291 43.4 24.2793 43.4 23.999C43.4 23.7793 43.3562 23.3183 43.063 22.7077Z" fill="#010000"/>
</svg>
