<svg width="48" height="48" viewBox="0 0 48 48" fill="none" xmlns="http://www.w3.org/2000/svg">
<path d="M24 1.2002C19.666 1.2002 15.472 2.5342 11.962 4.9762C10.5069 4.70523 9.06141 4.38504 7.628 4.0162C3.74497 7.49773 1.07294 12.1265 0 17.2302C1.03668 18.2867 2.03726 19.3779 3 20.5022C2.259 29.2838 7.0602 37.5994 15.036 41.3482C15.53 42.7462 15.976 44.1562 16.372 45.5822C21.3287 47.2041 26.6733 47.2041 31.63 45.5822C32.024 44.1562 32.47 42.7442 32.964 41.3462C40.9392 37.5988 45.7404 29.2848 45 20.5042C45.964 19.3782 46.964 18.2842 48 17.2322C46.928 12.127 44.2559 7.49669 40.372 4.0142C38.94 4.3842 37.494 4.7042 36.038 4.9762C32.5052 2.51752 28.3042 1.19976 24 1.2002ZM24 2.4842C27.612 2.4842 31.124 3.4722 34.172 5.2982C27.4321 6.3586 20.5679 6.3586 13.828 5.2982C16.9015 3.45679 20.4171 2.48421 24 2.4842ZM7.988 5.4302C8.85 5.6442 9.718 5.8382 10.59 6.0162C6.67352 9.24693 4.05503 13.783 3.216 18.7902C2.626 18.1262 2.022 17.4722 1.408 16.8302C2.45678 12.4754 4.7418 8.51661 7.988 5.4302ZM40.012 5.4302C43.2581 8.51668 45.5431 12.4755 46.592 16.8302C45.978 17.4722 45.374 18.1262 44.784 18.7902C43.945 13.783 41.3265 9.24693 37.41 6.0162C38.282 5.8382 39.15 5.6442 40.012 5.4302ZM12.266 6.3382C20.0272 7.72506 27.9728 7.72506 35.734 6.3382C37.934 7.95717 39.7747 10.0145 41.1399 12.3803C42.5051 14.7462 43.3652 17.3693 43.666 20.0842C38.5854 26.1111 34.6133 32.9909 31.934 40.4042C29.4321 41.4999 26.7303 42.0656 23.999 42.0656C21.2677 42.0656 18.5659 41.4999 16.064 40.4042C13.3841 32.9911 9.41207 26.1115 4.332 20.0842C4.63423 17.3695 5.49517 14.7467 6.86063 12.381C8.22608 10.0153 10.0665 7.95784 12.266 6.3382ZM24.302 8.0722C24.0428 8.07923 23.7913 8.16223 23.5788 8.3109C23.3664 8.45957 23.2022 8.66737 23.1068 8.90849C23.0114 9.14961 22.9889 9.41345 23.0421 9.66726C23.0952 9.92107 23.2218 10.1537 23.406 10.3362C23.2069 10.2245 22.982 10.167 22.7537 10.1695C22.5255 10.172 22.3018 10.2344 22.1052 10.3504C21.9086 10.4664 21.746 10.632 21.6334 10.8306C21.5209 11.0292 21.4625 11.2539 21.464 11.4822C21.4626 11.7222 21.5275 11.958 21.6515 12.1635C21.7756 12.369 21.9539 12.5363 22.1669 12.6469C22.3799 12.7576 22.6193 12.8073 22.8588 12.7906C23.0982 12.7738 23.3284 12.6914 23.524 12.5522C23.042 13.3602 22.312 14.4402 21.264 14.4402C20.17 14.4402 19.642 13.9842 19.16 13.1742C19.3715 13.2235 19.5928 13.2089 19.796 13.1322C20.428 12.9222 20.782 12.2862 20.604 11.4862C20.446 10.7782 19.692 10.3862 19.006 10.5862C18.7828 10.6509 18.5815 10.7754 18.424 10.9462C18.5996 10.6299 18.6455 10.2577 18.552 9.9082C18.356 9.2102 17.528 8.6522 16.806 8.7602L19.636 15.7102C19.49 15.8662 19.276 16.1022 19.124 16.3682C18.52 16.0622 17.306 15.6102 16.096 16.0982C15.7041 16.2573 15.3488 16.4949 15.052 16.7962C14.152 17.6962 13.7 19.1962 13.466 20.2582C13.4057 20.5335 13.3523 20.8102 13.306 21.0882C13.682 20.8062 13.926 20.6282 14.154 20.4762C14.358 20.3402 14.554 20.2282 14.826 20.0882C15.32 19.8342 15.992 19.5602 16.598 19.5602C16.924 19.5602 17.292 19.6462 17.542 19.8562C17.632 19.9302 18.352 20.9422 19.77 21.3142C21.102 21.6642 21.13 21.8882 21.15 22.0682C21.15 22.0682 20.918 22.4482 20.416 22.7982C20.2172 22.4781 19.9853 22.1798 19.724 21.9082C19.062 21.2162 18 20.8442 17.132 20.8502C16.306 20.8582 15.696 21.2342 14.08 21.2342C12.44 21.2342 11.3 20.8202 10.46 20.3262C9.856 19.9982 9.42 19.5862 9.014 19.2562C9.23 19.7822 9.44 20.2002 9.628 20.6242C9.768 20.9262 10.282 21.9582 10.924 22.5182C11.75 23.2182 12.568 23.4482 13.372 23.4482C14.188 23.4482 14.992 23.2102 15.784 22.9762C16.564 22.7442 17.316 22.5202 18.068 22.5202C19.042 22.5202 19.572 22.8462 19.996 23.1082C19.8482 23.2115 19.6982 23.3115 19.546 23.4082C18.946 23.7902 18.468 23.9322 18.004 23.9322C17.432 23.9322 16.402 23.6322 15.504 23.2722C15.4972 23.34 15.4932 23.4081 15.492 23.4762V23.7082C15.492 24.2142 15.574 24.8222 16.144 25.4082C16.39 25.6582 16.694 25.8522 17.052 25.9882C17.426 26.1282 17.866 26.1982 18.344 26.2222C18.126 26.4222 17.922 26.6102 17.724 26.8542C17.244 27.4462 16.854 28.2382 16.854 29.2582C16.854 29.7822 16.946 30.2202 17.076 30.6402C17.17 30.9382 17.262 31.2082 17.39 31.5302L17.814 31.0202C17.822 31.0122 18.286 30.4642 18.924 30.0002C18.5046 30.8212 18.2815 31.7283 18.272 32.6502C18.272 34.6742 19.398 36.3182 20.936 37.6102C20.936 37.6102 21.302 37.9362 21.56 38.1362C21.554 37.8122 21.56 37.6022 21.56 37.3202C21.56 36.3342 21.72 34.4242 22.37 33.2702C22.44 33.5402 22.52 33.9382 22.59 34.3862C22.68 34.9822 22.752 35.6682 22.752 36.2662C22.752 37.2582 22.608 37.9922 22.44 38.5202C22.244 39.1282 22.08 39.3602 21.93 39.6142C22.5234 39.6328 23.1166 39.5723 23.694 39.4342C24.4915 39.2669 25.2302 38.8908 25.8346 38.3444C26.439 37.798 26.8874 37.1008 27.134 36.3242C27.314 35.7582 27.406 35.1322 27.406 34.4442C27.406 34.0482 27.37 33.6382 27.314 33.2382L27.266 32.9182C27.376 33.0062 27.452 33.0882 27.546 33.1942C27.906 33.6082 28.232 34.2422 28.232 35.2662C28.232 35.6162 28.212 36.1562 28.064 36.7642C28.412 36.6482 28.766 36.4382 29.104 36.2242C29.512 35.9642 29.898 35.6562 30.248 35.3042C31.208 34.3442 31.87 33.0702 31.884 31.6142C31.894 30.6642 31.692 29.9042 31.244 29.0162C31.196 28.9202 31.14 28.8222 31.09 28.7242C31.194 28.7682 31.292 28.8242 31.384 28.8842C31.894 29.2122 32.224 29.7322 32.444 30.3202C32.576 30.6742 32.672 31.0202 32.738 31.4282C32.886 31.2482 33.062 31.0042 33.262 30.6582C33.664 29.9622 34.09 28.8922 34.09 27.3642C34.09 26.6142 33.992 25.7522 33.65 24.8542C33.3009 23.9192 32.7152 23.0909 31.95 22.4502C32.4786 22.5076 32.972 22.7422 33.35 23.1162C33.6 23.3682 33.796 23.6762 33.976 24.0202L34.166 24.4002C34.184 24.2142 34.182 24.1542 34.186 23.9922C34.146 21.2902 33.392 19.3122 30.934 18.0362L30.92 18.0282C31.78 17.0522 32.196 15.9522 32.486 14.7682C31.894 14.6182 30.8 14.4922 29.14 15.2682L31.78 8.7602C31.056 8.6522 30.23 9.2102 30.034 9.9082C29.9405 10.2579 29.9872 10.6303 30.164 10.9462C30.0058 10.7747 29.8039 10.6496 29.58 10.5842C28.894 10.3842 28.14 10.7782 27.98 11.4862C27.804 12.2862 28.158 12.9222 28.79 13.1302C29.058 13.2102 29.144 13.2202 29.426 13.1722C28.944 13.9822 28.438 14.4302 27.344 14.4302C26.296 14.4302 25.56 13.3602 25.078 12.5502C25.078 12.5502 25.57 12.7942 25.848 12.7942C26.019 12.7926 26.188 12.7574 26.3453 12.6905C26.5027 12.6236 26.6454 12.5264 26.7652 12.4044C26.8849 12.2824 26.9795 12.1379 27.0435 11.9794C27.1075 11.8208 27.1396 11.6512 27.138 11.4802C27.1412 11.1347 27.0071 10.802 26.7653 10.5553C26.5234 10.3086 26.1935 10.1679 25.848 10.1642C25.6151 10.1644 25.3867 10.2288 25.188 10.3502C25.4427 10.0943 25.5876 9.7492 25.592 9.3882C25.5938 9.21704 25.5619 9.04721 25.4981 8.88841C25.4342 8.7296 25.3397 8.58495 25.2199 8.46272C25.1001 8.34049 24.9573 8.24308 24.7998 8.17607C24.6423 8.10906 24.4732 8.07376 24.302 8.0722ZM31.518 15.2422H31.812L31.718 15.5222C31.416 16.4162 30.46 18.5542 28.114 19.0802L28.124 19.1242L28.224 19.6182C29.218 19.4342 29.858 19.0122 30.438 18.5082C31.922 19.2302 32.922 20.4302 33.278 22.0282L33.346 22.3422C33.2778 22.2671 33.2013 22.2 33.118 22.1422C32.6847 21.8801 32.1863 21.7456 31.68 21.7542C31.156 21.7542 30.702 21.8802 30.476 21.9582C30.848 22.2762 31.15 22.5522 31.418 22.8202C32.238 23.6422 32.772 24.4262 33.092 25.2902C33.332 25.9422 33.452 26.6302 33.452 27.3862C33.452 28.1922 33.308 28.9302 33.026 29.5822C33.004 29.6342 32.946 29.7662 32.922 29.8362C32.9007 29.7496 32.8712 29.6652 32.834 29.5842C32.152 28.1442 31.014 27.8402 30.178 27.8402C30.038 27.8402 29.918 27.8482 29.81 27.8562L29.822 27.8762C30.378 28.7322 31.218 30.0262 31.218 31.6162C31.218 32.1362 31.122 32.6482 30.934 33.1342C30.6874 33.7583 30.3127 34.3238 29.834 34.7942C29.598 35.0282 29.39 35.2222 29.04 35.4602L28.84 35.6022C28.8638 35.5243 28.8772 35.4436 28.88 35.3622C28.928 33.5682 27.93 32.1422 26.336 31.7082L26.372 31.8602C26.546 32.5662 26.744 33.3642 26.744 34.4442C26.744 35.6102 26.454 36.5762 25.884 37.3162C25.5164 37.7872 25.0456 38.1676 24.508 38.4282C24.0986 38.6408 23.6587 38.7885 23.204 38.8662L22.986 38.9022C23.008 38.8742 23.054 38.7762 23.076 38.7282C23.1203 38.6238 23.1564 38.5162 23.184 38.4062C23.432 37.4962 23.438 36.4042 23.438 36.2682C23.438 34.5782 23.018 33.0322 22.766 32.1082L22.714 31.9122C22.514 32.0602 22.382 32.1922 22.292 32.2842L22.252 32.3262C21.726 32.8522 21.342 33.7722 21.112 35.0602C21.042 35.4542 21.008 35.7842 20.972 36.1342L20.946 36.5242L20.94 36.7662C20.94 36.7662 20.796 36.6062 20.76 36.5702C20.6306 36.438 20.5052 36.3019 20.384 36.1622C19.9998 35.7343 19.6749 35.2567 19.418 34.7422C19.2672 34.4339 19.1485 34.1108 19.064 33.7782C18.9714 33.4114 18.9244 33.0345 18.924 32.6562C18.924 30.5322 20.206 29.1082 20.76 28.5402L20.58 28.5722C20.3601 28.6145 20.1425 28.6679 19.928 28.7322C19.5424 28.8487 19.1749 29.0184 18.836 29.2362C18.3927 29.5265 17.9876 29.8712 17.63 30.2622C17.63 30.2622 17.594 30.0962 17.588 30.0482C17.541 29.79 17.5143 29.5285 17.508 29.2662C17.508 28.3842 17.844 27.6002 18.508 26.9402C19.132 26.3142 19.61 26.1142 21.038 25.5162L21.474 25.3342L20.846 25.4202C19.97 25.5442 19.57 25.6002 18.828 25.6002C17.778 25.6002 17.054 25.3862 16.616 24.9462C16.5202 24.8523 16.4375 24.746 16.37 24.6302C16.278 24.4753 16.1997 24.3127 16.136 24.1442L16.68 24.3422C16.788 24.3762 16.914 24.4142 17.02 24.4422C17.3392 24.5314 17.6686 24.5785 18 24.5822C18.888 24.5822 19.608 24.1942 20.48 23.5662C20.844 23.3062 21.152 23.0502 21.392 22.8102C21.756 22.4462 21.834 22.2502 21.836 22.2162C21.82 21.6782 21.804 21.1702 19.934 20.6802C19.2173 20.4866 18.5789 20.0741 18.108 19.5002C18.0686 19.4525 18.0266 19.4071 17.982 19.3642C17.5958 19.0551 17.1125 18.8928 16.618 18.9062C16.226 18.9062 15.8 18.9922 15.316 19.1702C15.0479 19.269 14.7843 19.3798 14.526 19.5022L14.31 19.6022L14.382 19.3762C14.462 19.1122 14.552 18.8722 14.67 18.5942C14.77 18.3582 14.87 18.1542 14.982 17.9662C15.35 17.3462 15.806 16.9222 16.334 16.7082C16.61 16.5962 16.91 16.5402 17.228 16.5402C17.998 16.5402 18.692 16.8742 18.978 17.0342C18.998 18.4542 19.854 19.2742 20.838 19.2742C21.079 19.2782 21.3181 19.2313 21.5397 19.1365C21.7613 19.0417 21.9604 18.9012 22.124 18.7242C22.366 18.4802 22.516 18.2082 22.612 17.9922C22.69 17.8182 22.746 17.6922 22.752 17.5922L22.762 17.5942C22.9228 17.6449 23.0681 17.7358 23.184 17.8582L23.656 17.4382C23.4301 17.2062 23.1564 17.026 22.854 16.9102C22.5578 16.7935 22.2441 16.7272 21.926 16.7142C21.6848 16.7056 21.4434 16.7231 21.206 16.7662C20.96 16.8062 20.762 16.8622 20.414 16.8622C20.1634 16.868 19.916 16.8058 19.698 16.6822C19.9656 16.2531 20.324 15.8878 20.748 15.6122L20.76 15.6042H28.394L28.542 15.6102C27.9805 15.9686 27.4768 16.4104 27.048 16.9202L27.478 17.2602C28.474 16.0162 30.022 15.2422 31.518 15.2422ZM30.604 16.2302C29.362 16.3902 28.24 17.5002 28.24 17.5002L28.494 18.0402C29.08 17.9162 29.536 17.6002 29.874 17.2622C30.37 16.7662 30.568 16.3882 30.604 16.2302ZM19.52 17.3162L19.796 17.3922C19.906 17.4242 20.06 17.4562 20.21 17.4762L20.282 17.4882L20.296 17.5582C20.3136 17.6666 20.3638 17.7671 20.44 17.8462C20.4962 17.9032 20.5631 17.9484 20.637 17.9793C20.7108 18.0101 20.79 18.026 20.87 18.026C20.95 18.026 21.0292 18.0101 21.103 17.9793C21.1769 17.9484 21.2438 17.9032 21.3 17.8462C21.4055 17.7421 21.4683 17.6022 21.476 17.4542L21.48 17.3582L21.574 17.3542C21.7206 17.348 21.8674 17.348 22.014 17.3542L22.248 17.3702L22.212 17.5102C22.145 17.8315 21.9867 18.1267 21.756 18.3602C21.6364 18.4878 21.4907 18.5881 21.3288 18.6544C21.167 18.7207 20.9928 18.7513 20.818 18.7442C20.665 18.743 20.5137 18.7115 20.3729 18.6514C20.2321 18.5913 20.1047 18.5039 19.998 18.3942C19.768 18.1587 19.6152 17.8587 19.56 17.5342L19.52 17.3162ZM28.546 20.2962L28.28 21.1282C28.45 21.3242 28.576 21.5082 28.68 21.6622C28.972 22.0902 29.156 22.4822 29.26 22.8902C29.36 23.2902 29.372 23.6742 29.372 24.0302C29.372 24.3142 29.342 24.6002 29.28 24.8802C29.236 25.0822 29.174 25.3002 29.122 25.4662C29.074 25.6262 28.964 25.9182 28.964 25.9182C28.964 25.9182 28.948 25.5882 28.918 25.4082C28.888 25.2282 28.86 25.0362 28.812 24.8802C28.6798 24.4255 28.4373 24.0106 28.106 23.6722C27.9 23.4686 27.6639 23.2979 27.406 23.1662C27.2237 23.0717 27.0336 22.9927 26.838 22.9302C26.882 23.0962 26.928 23.2762 26.978 23.4902C27.106 24.0422 27.164 24.4982 27.164 24.9222C27.164 25.5962 27.014 26.1662 26.7 26.6642C26.5935 26.8338 26.468 26.9909 26.326 27.1322C26.0955 27.3737 25.8362 27.5859 25.554 27.7642C25.626 27.6442 25.684 27.5202 25.754 27.3782C25.838 27.2042 25.89 27.0182 25.928 26.8822C26.3 25.5682 25.686 24.7562 25.188 24.2582C25.1213 24.1908 25.0526 24.1255 24.982 24.0622C24.974 24.2462 24.966 24.4302 24.954 24.6162C24.91 25.2522 24.794 25.9762 24.254 26.5122C24.1656 26.6034 24.0729 26.6901 23.976 26.7722C23.872 26.8562 23.754 26.9562 23.596 27.0522C23.662 26.9242 23.716 26.8602 23.816 26.6162C23.9149 26.3663 23.9608 26.0986 23.9508 25.8301C23.9409 25.5616 23.8752 25.298 23.758 25.0562L23.078 25.4222C23.098 25.4722 23.112 25.5262 23.126 25.5742C23.1807 25.7678 23.1936 25.9707 23.164 26.1697C23.1343 26.3686 23.0628 26.559 22.954 26.7282C22.854 26.8882 22.724 27.0482 22.546 27.2282C22.388 27.3822 22.222 27.5322 22.076 27.6642L21.764 27.9462L22.042 27.9442C22.342 27.9402 22.742 27.9242 23.168 27.8502C23.848 27.7262 24.378 27.4662 24.794 27.0502C24.9645 26.8794 25.1112 26.6863 25.23 26.4762C25.21 26.6962 25.156 26.9202 25.062 27.1562C24.9351 27.4635 24.7749 27.7559 24.584 28.0282C24.454 28.2182 24.308 28.4282 24.12 28.6582L23.948 28.8682L24.216 28.8282C24.54 28.7822 24.862 28.7162 25.176 28.6322C26.0718 28.4194 26.8469 27.8607 27.332 27.0782C27.532 26.7622 27.676 26.4322 27.768 26.0702C27.8812 25.6154 27.9257 25.1462 27.9 24.6782C27.96 24.7822 28.014 24.8962 28.066 25.0222C28.174 25.2942 28.246 25.6022 28.286 25.9622C28.306 26.1862 28.318 26.4322 28.318 26.7322V26.7922C28.318 27.0802 28.318 27.3542 28.296 27.6642L28.274 27.9682L28.48 27.7442C28.748 27.4502 29.038 27.1142 29.334 26.6442C29.7071 26.0642 29.9583 25.4145 30.0725 24.7344C30.1866 24.0543 30.1613 23.3582 29.998 22.6882C29.8536 22.1419 29.6103 21.6267 29.28 21.1682C29.0718 20.8706 28.8383 20.5916 28.582 20.3342L28.546 20.2962ZM21.996 20.6262C21.8472 20.6265 21.7003 20.6599 21.566 20.7242C22.112 20.7822 22.248 20.9502 22.5 21.2002C22.632 21.3342 22.758 21.4762 22.888 21.6082C23.128 21.8482 23.35 22.0462 23.76 22.0462C23.8661 22.0452 23.9717 22.0304 24.074 22.0022C24.292 21.944 24.4984 21.8486 24.684 21.7202C24.5554 21.7741 24.4174 21.8019 24.278 21.8022C23.256 21.8022 22.95 20.6262 21.996 20.6262ZM10.336 20.8262C10.456 20.9022 10.708 21.0802 11.066 21.2262C11.4 21.3662 11.752 21.4962 12.166 21.5942C12.722 21.7242 13.338 21.7882 14.046 21.7882C14.698 21.7882 15.48 21.6842 16.37 21.4822C16.656 21.4182 16.954 21.3582 17.196 21.3582C17.626 21.3582 18.044 21.4282 18.352 21.5902C18.658 21.7542 18.874 21.9302 19.142 22.1482C18.8269 22.0723 18.5056 22.0247 18.182 22.0062C17.896 21.9862 17.502 22.0122 17.252 22.0502C16.692 22.1322 16.202 22.2782 15.686 22.4302L15.626 22.4502C14.846 22.6802 14.108 22.8982 13.38 22.8982C12.536 22.8982 11.774 22.5842 11.178 21.9882C11.048 21.8582 10.836 21.6482 10.694 21.4482C10.5563 21.2527 10.4365 21.0432 10.336 20.8262ZM4.214 21.9602C8.50092 27.264 11.9317 33.2059 14.382 39.5702C11.299 37.8558 8.73036 35.3485 6.94192 32.3078C5.15348 29.2672 4.21029 25.8038 4.21 22.2762C4.21 22.1682 4.21 22.0642 4.214 21.9602ZM43.786 21.9602L43.79 22.2742C43.7901 25.8021 42.847 29.266 41.0586 32.307C39.2701 35.348 36.7013 37.8556 33.618 39.5702C36.068 33.2053 39.4976 27.2634 43.786 21.9602ZM16.626 42.0142C21.3821 43.7914 26.6199 43.7914 31.376 42.0142C31.096 42.8602 30.83 43.7082 30.584 44.5622C26.2872 45.8318 21.7148 45.8318 17.418 44.5622C17.1704 43.7083 16.9057 42.8595 16.624 42.0162L16.626 42.0142Z" fill="black"/>
</svg>
