<svg width="48" height="48" viewBox="0 0 48 48" fill="none" xmlns="http://www.w3.org/2000/svg">
<path d="M20.6301 25.9876V26.8734H29.2583V24.201H28.2785C28.2311 25.0422 27.7412 25.9132 26.477 25.9876H24.9521V21.9305H26.4217V21.0372H20.6538V21.9305H22.076V25.9876H20.6301ZM15.8578 27C13.4953 27 11.5042 25.861 11.5042 24.0372C11.5042 22.005 13.4874 21 15.8578 21C18.5047 21 20.1956 22.139 20.1956 24.0372C20.1956 25.8462 18.2914 27 15.8578 27ZM15.8578 26.0099C16.6795 26.0099 17.2879 25.1092 17.2879 24.0298C17.2879 22.8313 16.7348 21.938 15.8578 21.938C14.9807 21.938 14.4435 22.8313 14.4435 24.0298C14.4435 25.2432 14.9807 26.0099 15.8578 26.0099ZM0 21.0447V21.938H1.44593L4.29827 26.866H7.7037L10.6193 21.938H12.0573V21.0447H7.6958V21.938H8.9442L6.84247 25.5112L4.76444 21.938H6.28938V21.0447H0ZM27.8282 21.0447H34.1254V21.938H32.5926L34.6706 25.5112L36.7882 21.938H35.524V21.0447H39.8775V21.938H38.4474L35.524 26.866H32.1185L29.2662 21.938H27.8282V21.0447ZM43.6622 27C46.0958 27 48 25.8462 48 24.0372C48 22.139 46.3012 21 43.6622 21C41.2998 21 39.3086 22.005 39.3086 24.0372C39.3086 25.861 41.2998 27 43.6622 27ZM43.6622 26.0099C42.7852 26.0099 42.2558 25.2432 42.2558 24.0298C42.2558 22.8313 42.7931 21.938 43.6622 21.938C44.5314 21.938 45.0923 22.8313 45.0923 24.0298C45.0923 25.1092 44.4919 26.0099 43.6622 26.0099Z" fill="black"/>
</svg>
