<svg width="48" height="48" viewBox="0 0 48 48" fill="none" xmlns="http://www.w3.org/2000/svg">
<g clip-path="url(#clip0_15_81)">
<path fill-rule="evenodd" clip-rule="evenodd" d="M0 38V47.7257H3.14426V43.7211H6.59603V47.7257H9.75241V38H6.59603V41.9053H3.14426V38H0Z" fill="black"/>
<path fill-rule="evenodd" clip-rule="evenodd" d="M11.2571 47.7038H14.4048V38.0141H11.2571V47.7038Z" fill="black"/>
<path fill-rule="evenodd" clip-rule="evenodd" d="M25.8817 39.7651L25.8805 38.0163H18.7835C16.3287 38.2812 15.68 40.1257 15.722 41.1826V44.9235C15.8025 46.295 17.0316 47.7114 19.2303 47.6916H25.222C25.6278 47.7566 25.9235 47.5372 25.8882 47.1124V41.9395H22.7484V45.9663H20.3433C19.2247 45.868 18.6996 45.0041 18.694 43.8899V42.0067C18.694 40.9851 18.6686 39.7098 20.8299 39.7651H25.8817Z" fill="black"/>
<path fill-rule="evenodd" clip-rule="evenodd" d="M36.4316 39.7826V38.014H30.8526C28.4774 38.0042 27.2528 39.6999 27.3512 41.2741V44.5022C27.3831 46.5 28.739 47.5239 30.6563 47.7467H36.4316V45.953H32.4037C30.5216 45.9254 30.2657 45.0009 30.3132 43.6693H36.4316V41.9262H30.3132C30.2149 40.4025 30.9012 39.8962 31.8554 39.7826H36.4316Z" fill="black"/>
<path fill-rule="evenodd" clip-rule="evenodd" d="M37.9022 47.7334V38.5162C37.9022 38.1222 37.9474 38.0087 38.4681 38.0087H44.5988C47.3899 38.003 48.8791 41.7862 45.1579 42.9091L48 47.7334H44.8967C44.655 47.7334 44.4963 47.6032 44.3991 47.4422L41.3563 42.4137C41.2484 42.2352 41.2716 41.977 41.5209 41.9703L42.6867 41.9593C44.7289 41.9228 44.7487 39.7936 42.7156 39.764H41.0309V47.7334H37.9022Z" fill="black"/>
<path fill-rule="evenodd" clip-rule="evenodd" d="M41.2049 16.2097C38.0962 16.6042 35.259 19.4913 32.8042 22.072C29.7225 25.2446 26.531 28.7357 25.0102 28.8067C27.8031 27.0416 30.6374 23.643 33.188 21.1322C36.8037 17.5314 38.9422 15.9714 41.2049 16.2097ZM2.61675 26.8045C3.91985 27.6842 5.63095 28.139 7.56149 28.0344L6.21507 28.4872C10.0321 31.6589 16.7299 34.2098 23.2829 34.4496C39.9911 34.3522 47.6149 24.4305 43.9406 17.1729C44.6909 17.7278 45.3735 18.6479 45.6331 19.6419C47.0131 24.9285 42.2579 31.0775 32.5419 33.8908C24.2264 36.2983 14.0603 35.6863 5.10536 28.3674C4.94313 28.2349 4.7635 28.2321 4.58778 28.15C3.8766 27.8224 3.10738 27.4012 2.61675 26.8045ZM7.41688 27.6746C11.1665 27.3345 15.2714 26.4476 21.8554 23.3681C22.8153 22.883 23.6222 23.8909 23.4939 25.0787C23.3828 26.098 23.0043 26.8284 22.5191 28.2559C22.3246 29.165 22.6531 29.7532 24.2925 29.6025C26.5595 29.1064 28.3463 27.1253 31.1402 24.2353C33.5964 21.7247 35.6995 19.2404 38.2799 17.5395C41.8524 15.3118 43.9653 16.3897 44.0396 20.7446C43.277 28.7577 34.1005 33.092 24.7184 33.4126C18.2006 33.6357 11.3949 31.4608 7.41688 27.6746ZM6.94484 27.1589C11.6218 27.0405 16.6203 25.3813 21.7568 22.8774C22.5367 22.529 23.3786 23.0227 23.5019 23.866C22.868 22.7507 22.1731 22.8649 21.5945 23.1647C14.8092 26.4462 8.84522 27.641 6.94484 27.1589ZM22.6164 21.1837C25.2957 21.4627 24.1129 24.8738 27.604 22.2878C26.1837 23.8382 24.8641 25.9406 23.5627 28.6657C23.1503 29.5037 22.3758 29.0783 22.9125 28.2239C24.6642 24.6397 24.8198 22.2446 22.6164 21.1837ZM23.5517 11.1395C24.3845 11.0614 24.8967 11.3876 24.7642 12.5488C24.6185 13.8214 24.2586 14.4839 24.2493 15.5531C24.2399 16.6626 24.6036 17.2497 25.2008 17.5216C24.6469 17.1116 24.3088 16.0285 24.4874 14.9956C24.705 13.7394 25.0645 12.4778 24.9292 11.863C24.7223 11.0349 24.1628 10.8326 23.5517 11.1395ZM2.8426 23.5133C4.45938 25.2335 6.53828 25.5472 9.29547 23.806C13.8845 20.5106 17.1678 16.1958 21.2783 12.6899C23.3856 10.8925 24.594 10.7101 23.933 13.172C23.4815 14.4728 23.0341 15.6702 23.0181 16.9264C22.987 19.4203 25.2603 19.8261 28.4031 18.3774C33.5341 16.0131 38.3218 13.4049 41.4375 13.9375C43.7812 14.339 45.4805 15.7301 45.9279 17.7473C44.7369 14.4728 41.2402 13.996 38.3231 15.5267C35.2143 17.1591 32.1755 18.8989 28.9612 20.5912C25.2981 22.5219 25.7688 21.4934 22.3977 19.0231C20.9108 17.9313 18.9722 19.1819 17.6556 19.9945C14.5213 21.9323 11.6354 24.0041 8.47088 25.2335C5.51474 26.3837 3.80636 25.4662 2.8426 23.5133ZM5.29984 15.7818C3.20363 18.9699 3.65237 26.13 7.63174 24.0765C8.57227 23.5901 9.79307 22.8524 11.3381 21.4862C13.5818 19.5037 15.5794 17.6051 17.6854 15.4696C19.5156 13.6113 21.4201 11.4629 23.3925 10.8176C24.3493 10.5054 25.3226 10.9624 25.1767 12.2577C25.0265 13.586 24.6023 14.612 24.7386 16.0048C25.3009 18.2562 26.0743 17.6987 30.1412 15.9867C33.7019 14.704 37.2241 13.6266 40.6346 13.2655C37.3404 10.2056 33.1433 8.6735 28.5923 7.92185C20.582 6.80944 10.2229 8.34576 5.29984 15.7818ZM2.7859 24.2757C1.03255 19.6602 2.571 13.4342 11.6029 9.10705C19.4142 5.36379 28.9844 6.08324 35.14 8.35402C37.7232 9.30765 40.1613 10.8872 42.2254 12.9071L40.7169 13.2669C43.5773 13.5092 44.7382 14.6498 45.9642 15.9488C45.2276 14.8561 43.9611 13.7883 42.7634 12.8708C40.7412 10.5999 38.9017 9.66594 36.6659 8.3737C30.4225 5.57994 20.9837 4.2877 11.28 8.14488C6.57324 10.0157 3.72783 13.052 2.15473 15.9714C0.95443 18.1976 0.547393 22.306 2.7859 24.2757ZM23.9991 5C37.2189 5 48 11.9631 48 20.5006C48 29.0365 37.2189 36 23.9991 36C10.7809 36 0 29.0365 0 20.5006C0 11.9631 10.7809 5 23.9991 5Z" fill="black"/>
</g>
<defs>
<clipPath id="clip0_15_81">
<rect width="48" height="48" fill="white"/>
</clipPath>
</defs>
</svg>
