<svg width="48" height="48" viewBox="0 0 48 48" fill="none" xmlns="http://www.w3.org/2000/svg">
<path d="M12.0456 26.6516V31L21.1711 22.7108H21.2624V25.9721H18.616L15.3308 28.9617H21.2624V30.6733H24.5475V18.2717H21.2624L12.0456 26.6516Z" fill="black"/>
<path d="M30.0228 30.6733H26.6289L26.6464 21.2613L30.0228 18.2717H34.7681L35.1331 18.3171L35.4525 18.4077C38.292 19.313 38.3713 23.2938 36.3194 24.5226C37.7379 25.1809 38.9121 28.3876 35.3612 30.4565C35.1329 30.5815 35.0029 30.625 34.7681 30.6733H30.7529V27.6934H33.9924C34.6416 27.0043 34.6332 26.6258 33.9924 25.9721H30.7529V22.9825H33.9924C34.7061 22.3566 34.6104 21.7214 33.9924 21.2613H30.0228V30.6733Z" fill="black"/>
<path d="M39.6046 30.683V27.6934H44.2586C44.6364 27.516 44.8061 27.3763 44.8061 26.8328C44.8061 26.2892 44.2586 25.9722 44.2586 25.9722H39.6046V23.0279H44.2586C44.7199 22.847 44.8061 22.6655 44.8061 22.122C44.8061 21.5784 44.6874 21.449 44.2586 21.2613H39.6958V21.1707L42.8897 18.2718H45.5817L47.0875 19.2683L48 20.7178V23.0732C47.6826 23.8414 47.378 24.131 46.7224 24.5227C47.4162 24.805 47.6556 25.1268 48 25.791V28.0558C47.5052 29.5805 46.8697 30.1038 45.3536 30.683H39.6046Z" fill="black"/>
<path d="M0 20.9896V30.683H3.23954V27.6667L4.79087 26.3345L9.94677 30.9095V26.6969L7.20913 24.1603L13.4144 18.2718H8.85171L3.28517 23.345V18L0 20.9896Z" fill="black"/>
</svg>
