<svg width="48" height="48" viewBox="0 0 48 48" fill="none" xmlns="http://www.w3.org/2000/svg">
<path d="M23.9056 11.0001C31.063 10.9832 39.8804 13.168 44.8339 18.6315C50.25 24.6052 48.2824 31.6025 42.2247 36.0673C32.5456 43.2012 14.9359 43.1672 5.40016 35.7803C-0.0148945 31.5854 -2.03168 25.1931 2.50924 19.4214C7.24688 13.3999 16.5401 11.0174 23.9056 11.0001ZM22.3343 13.3058C15.9554 13.584 6.88275 16.5653 4.39136 23.0656C1.75961 29.9321 8.05734 35.1851 13.7979 37.3379C19.1655 39.3511 26.992 39.7927 32.4482 37.9136C32.9948 37.7253 33.2845 37.4655 32.9602 36.8638C29.4004 34.0719 25.947 31.0996 22.3394 28.3639C20.9616 27.3191 19.1342 26.207 17.3654 26.081C15.111 25.9205 12.6746 26.1996 10.401 26.0806C9.67928 25.9791 9.53525 25.2637 10.0092 24.7579L17.9826 18.1703C18.7556 17.7039 19.6381 17.3174 20.5519 17.2582C23.3586 17.0763 26.3606 17.3999 29.1878 17.2594C29.5982 17.3045 29.7226 17.8255 29.4322 18.0936C26.7532 20.2671 24.0195 22.3848 21.3904 24.6127C21.1833 24.9917 21.4358 25.2612 21.827 25.2991C24.9938 25.6056 28.9362 24.4536 31.6371 26.4747C34.337 28.4947 36.8579 30.9249 39.544 32.9817C40.7904 33.7991 41.6975 32.4821 42.3472 31.5842C46.1181 26.374 43.7812 20.9044 38.9874 17.5149C34.2921 14.1943 28.0161 13.0578 22.3343 13.3058Z" fill="black"/>
</svg>
