<svg width="48" height="48" viewBox="0 0 48 48" fill="none" xmlns="http://www.w3.org/2000/svg">
<g clip-path="url(#clip0_15_39)">
<path d="M47.8565 3.00001C47.907 2.99968 47.9567 3.01323 48.0001 3.03907L44.3604 13.1523L39.1397 27.3838C37.8101 31.0572 36.2685 35.0643 34.9366 38.9873L34.6749 39.0693C34.8345 38.0031 35.3838 36.9902 35.6719 35.8633C35.3741 35.6999 34.9533 35.7781 34.5802 35.8193C34.0526 36.6263 33.7454 37.9967 33.2325 39.0049C33.1379 38.9717 32.9108 39.1541 32.9815 38.9131C33.1812 37.7358 33.8792 37.0993 33.9044 35.9111L32.7266 36.2471C32.1909 37.1222 31.9705 38.1129 31.5772 39.04C31.4967 39.064 31.2842 39.0585 31.3419 38.9004L32.1846 36.459C31.9622 36.0914 31.5216 36.2692 31.1983 36.2754L30.8829 36.5L29.8897 39.0645L29.7149 39.0537C29.8041 38.1764 30.2927 37.2838 30.5684 36.3848C30.3789 36.1727 29.9359 36.0636 29.6163 36.1074L29.4073 36.1904C29.1001 37.0779 28.5622 38.2028 28.1231 39.0596L28.0284 39.0244C28.3326 38.0479 28.5723 37.1532 28.963 36.332L28.8927 36.1807C28.5143 36.2384 28.1172 36.1998 27.7257 36.3418C27.2967 37.3642 26.9257 38.085 26.6163 39.0254L26.4356 39.0303C26.5256 38.1523 27.0729 37.246 27.2247 36.4443C26.8602 36.2218 26.389 36.3337 25.9825 36.4697C25.6326 37.5206 25.3054 38.1691 24.8907 39.1065L24.7491 39.0537C24.8053 38.2175 25.37 37.2639 25.4805 36.5723C25.1688 36.3507 24.7328 36.5649 24.3721 36.5762C24.0335 37.2558 23.5142 38.2799 23.2901 39.0371L23.0919 39.0898C23.2432 38.2878 23.4812 37.4462 23.7891 36.7022C21.9684 35.8735 22.4608 38.2323 21.6348 39.0723L21.46 39.0615C21.3963 38.3592 22.0943 37.5267 22.087 36.7207C21.6761 36.6233 21.2672 36.8121 20.8731 36.8643C20.5198 37.681 20.2694 38.412 19.9307 39.0908C19.5447 39.0738 19.9307 38.7507 19.8292 38.5889L20.4063 36.8721C20.0864 36.9152 19.6414 36.7156 19.2637 36.916L18.3721 39.0547L18.1329 39.0742C18.2996 38.474 18.4599 37.747 18.7393 37.082C18.5858 36.7221 18.0549 36.9021 17.7286 36.8184L17.5782 36.8887C17.3313 37.6586 17.0047 38.401 16.6046 39.1035L16.4473 39.0459L17.1573 36.9658C16.7906 36.7954 16.3009 36.6693 15.8907 36.9111L15.1173 39.0215L14.9014 39.1211L14.8018 38.9063C15.0247 38.2023 15.4123 37.4863 15.4014 36.7861C15.0294 36.6325 14.6532 36.7788 14.2921 36.79L13.3096 39.127L13.168 39.0752L13.8731 36.8145C13.5312 36.7253 13.0632 36.3922 12.671 36.7305C12.3514 37.6487 12.0627 38.4365 11.5596 39.127C11.4754 39.1138 11.4881 39.03 11.4425 38.96L12.2969 36.8252C12.055 36.4154 11.4808 36.616 11.0714 36.6621L10.1182 39.0625C10.0382 39.0866 9.95603 39.1641 9.87898 39.083C9.90707 38.3252 10.5066 37.4198 10.5577 36.5986C10.1915 36.4292 9.81613 36.5766 9.45515 36.5879C9.00043 37.4387 8.87287 38.3205 8.35066 39.1113L8.19343 39.0537L8.98738 36.5947L8.43855 36.3398C9.58539 36.4749 9.35808 34.8549 9.9239 34.1875C9.54791 33.9956 9.22702 33.5566 8.79597 33.6123L6.79207 39.0752L6.55281 39.0947C7.08743 37.0049 7.87496 35.293 8.59578 33.1826C8.45976 32.775 8.22772 32.1902 7.93074 31.8311C6.88857 34.0387 6.01425 36.8615 5.17585 39.001C5.11404 39.1209 4.97643 39.1058 4.86628 39.0664C4.90299 38.7226 4.97798 38.5176 5.17195 38.2315C6.1494 35.5182 6.78582 33.2503 7.90339 30.6416C7.95919 29.6627 7.83007 28.6507 7.74128 27.7246C6.2225 31.3287 4.86658 35.1716 3.51863 39.0889C3.42837 39.0919 3.33771 39.0949 3.22761 39.0537L4.2198 36.2031L8.87898 23.3555C8.86627 22.3684 8.94344 21.3785 8.83406 20.4102L8.2657 21.667L2.03914 38.4941C1.91905 38.6293 1.97121 39.1648 1.58699 39.0957L1.55769 38.835L8.15339 20.8555L11.8956 10.6553L14.6729 3.08301C14.7576 3.0965 14.854 3.07773 14.9425 3.12794C13.3484 7.47268 11.656 12.0851 10.3302 16.332C11.2439 15.3992 11.504 13.8159 12.669 13.1719C13.845 9.67415 15.1793 6.57299 16.3126 3.09473C16.3967 3.10777 16.4768 3.08367 16.5811 3.13965L13.3819 12.2012C13.2658 12.3729 13.2773 12.6805 13.2335 12.8965C13.7527 12.7478 14.1688 12.6854 14.545 12.3418L18.0157 3.07715L18.2374 3.1045C17.3394 6.18699 16.0591 9.09242 15.0704 12.1768C15.3416 12.5087 15.801 12.035 16.1719 12.0459L16.3809 11.9619L19.6329 3.09864C19.7031 3.05296 19.7875 3.06664 19.877 3.06446C18.894 6.13253 17.9471 8.91008 16.876 11.7324L16.9512 11.8672L18.088 11.6416L21.2882 3.06348L21.5167 3.07618C20.6194 5.76534 19.7114 8.63004 18.6827 11.2881C18.9757 11.6094 19.5061 11.4288 19.8858 11.3184L22.9122 3.06934L23.1973 3.1211C22.3184 5.90648 21.1637 8.51873 20.4444 11.1123C20.7516 11.2964 21.1686 11.1815 21.5352 11.1553L22.0284 10.1035L24.5284 3.14356L24.7901 3.06153C24.5683 4.30125 23.8506 5.57493 23.4688 7.00684L22.1124 11.1885C22.3885 11.3612 22.7881 11.49 23.1241 11.4522C24.2128 8.72622 25.3732 5.56159 26.1846 3.1084C26.2745 3.10578 26.3588 3.11881 26.4288 3.07325C25.4847 6.08457 24.5152 8.72929 23.5557 11.5391C23.8229 11.8334 24.1997 11.8287 24.5792 11.9141C25.7184 9.09943 26.815 5.96477 27.8868 3.08985L28.1622 3.11915C27.1735 6.20364 26.0299 8.78504 25.085 11.9932C25.2937 12.3018 25.7289 12.2834 26.0616 12.3516L26.2462 12.1875C27.4866 9.05216 28.2708 6.03607 29.6602 3.02735L29.8184 3.08497C28.7721 6.12988 27.6116 9.29392 26.6387 12.3838C26.8175 12.6277 27.2576 12.7904 27.5675 12.7256L27.7843 12.5723C28.9322 9.29634 29.9828 6.28813 31.085 3.1377C31.1687 3.00775 31.3733 3.08362 31.5216 3.06641C30.2666 6.19614 29.3699 9.56444 28.0811 12.7354C28.2195 13.0896 28.7068 13.1252 29.0177 13.2031L29.168 13.1328C30.6306 9.63296 31.5144 6.34927 32.9171 3.05958C32.9646 3.07726 33.0369 3.12153 33.0919 3.07032C32.8607 4.23532 32.4201 5.14527 31.9796 6.39454C31.122 8.63457 30.3827 10.9889 29.5772 13.2832C29.7713 13.533 30.1898 13.5615 30.5059 13.624L30.7559 13.4307L34.5733 3.02442L34.795 3.05176C33.5486 6.58362 32.3113 10.119 31.0831 13.6572C31.3317 13.8557 31.7108 13.9415 32.0362 14.0781L32.171 14.0029L35.4395 5.09278L36.1788 3.07813C36.2848 3.08113 36.3725 2.98837 36.4815 3.08204C35.1006 6.70069 33.984 10.3281 32.5968 14.1592C32.92 14.3491 33.1966 14.5214 33.5899 14.4697C34.4767 13.027 34.603 11.8049 35.2725 10.1748L37.7647 3.0879C37.8822 3.05984 37.984 3.0255 38.1036 3.08692L34.2237 14.0059C34.3274 14.2583 33.9815 14.3275 34.0635 14.5898C34.4142 14.7539 35.0848 15.2148 35.2823 14.627C36.7884 10.7677 38.0068 6.71323 39.5391 3.02442L39.7608 3.05274C38.5623 6.95285 36.9044 10.9359 35.5684 14.9648C35.7633 15.2147 36.2055 15.3233 36.5284 15.3701L36.7442 15.2705C38.0393 10.9588 39.6844 7.40083 41.0919 3.07715C41.1893 3.00597 41.2987 3.09893 41.3995 3.06446C39.8327 7.38343 38.5661 11.2242 37.0596 15.333C37.0868 15.843 37.74 15.6186 37.9932 15.8545C38.9744 14.2499 39.5035 12.0319 40.1329 10.3164L42.794 3.0586L42.9688 3.06934L42.9874 3.36231L39.0391 14.415C39.059 14.9935 38.4713 15.3322 38.6485 15.9688C39.0163 16.0861 39.4285 16.3261 39.7169 16.0752C41.2469 12.0994 42.7822 7.37553 44.4512 3.02247C44.5318 2.99849 44.7433 3.00536 44.6856 3.16309C42.9047 7.7249 41.7279 11.8115 40.0147 16.2373C40.1368 16.5856 40.6391 16.6272 40.9493 16.7051L41.2696 16.4658C42.9476 11.7947 44.3682 7.58241 46.0743 3.0293C46.1758 2.99483 46.2852 3.08768 46.377 3.03223C44.7577 7.58218 43.1462 12.1354 41.544 16.6914C41.7235 17.0788 42.2069 17.0775 42.5509 17.1143L43.4171 15.0928L47.7139 3.04102C47.7569 3.01467 47.8061 3.00035 47.8565 3.00001ZM13.1915 3.12891L13.2276 3.37403C11.2241 9.17559 8.95538 14.9696 6.95222 20.7715L2.59578 32.4981L0.316479 38.8594L0.036206 38.9893C-0.0911739 38.461 0.139016 38.0267 0.392651 37.5303L12.0635 5.57227C12.1504 5.33667 12.3122 4.89573 12.4044 4.64356L13.0167 3.11817L13.1915 3.12891ZM10.3692 34.2432C9.95748 34.8775 9.99669 35.4997 9.67 36.1475C11.0336 36.6659 10.9193 35.177 11.3897 34.3311C11.0534 34.2266 10.7186 34.2637 10.3692 34.2432ZM13.0284 34.3428C12.6502 34.4007 12.29 34.2142 11.92 34.3467C11.6638 34.7527 11.521 35.4331 11.3663 36.001C11.7385 35.959 12.1155 35.9554 12.4923 35.9502L13.0284 34.3428ZM13.6055 34.376C13.2736 34.8435 13.2619 35.4113 13.087 35.9365C13.438 35.9043 13.7679 35.8829 14.1036 35.8447L14.6114 34.46L13.6055 34.376ZM16.0753 34.46C15.1502 34.0138 15.0223 35.0929 14.7384 35.7207C15.0219 35.8244 15.4353 35.8152 15.7764 35.7617C15.9895 35.3756 16.2274 34.874 16.2032 34.4541C16.1602 34.474 16.1325 34.4993 16.0753 34.46ZM16.8575 34.5684L16.4122 35.6377C16.7209 35.769 17.158 35.6964 17.5382 35.5859C17.728 35.2628 17.8905 34.9659 17.8487 34.5938C17.515 34.5784 17.177 34.5253 16.8575 34.5684ZM19.1153 34.6475C18.3107 34.0665 18.2734 35.2847 18.1798 35.5898L19.211 35.5039C19.4211 35.2238 19.573 34.7619 19.1153 34.6475ZM19.8526 35.5078L20.0177 35.4971C20.0255 35.4283 19.9409 35.415 19.8936 35.3975L19.8526 35.5078ZM24.4591 34.7324C24.1261 34.7172 23.9557 35.0834 23.7852 35.3066L24.3165 35.2686C24.3641 35.09 24.5021 34.9088 24.4591 34.7324ZM25.6436 34.5234C25.2485 34.433 24.9559 34.7899 24.8409 35.1045C24.869 35.2221 24.8894 35.2646 25.005 35.29C25.5163 35.2095 26.1787 35.2555 26.1573 34.5332L25.6436 34.5234ZM27.4766 34.4463C27.1013 34.398 26.5567 34.5196 26.545 35.0859L27.0509 35.165C27.4194 35.086 27.8844 34.9891 27.8614 34.5166C27.7315 34.4331 27.6177 34.4981 27.4766 34.4463ZM28.7833 34.3897C28.2637 34.199 28.3189 34.8259 28.2481 35.0684C28.4141 35.0039 28.621 35.0263 28.796 35.0371C29.1374 35.1268 29.2542 34.7588 29.337 34.4854C29.1498 34.3633 28.9675 34.4218 28.7833 34.3897ZM33.0655 30.4053C32.6898 30.4102 32.4501 30.7688 32.2403 31.0498C31.6753 32.2 31.5991 33.5303 32.3829 34.6572C32.7698 35.0124 33.1138 34.8524 33.5557 34.6221C33.776 34.3639 34.0527 33.9476 34.0235 33.6865C34.019 33.8457 33.8644 33.8781 33.7569 33.9287C33.5258 33.6826 33.8949 33.2105 33.9747 32.8467C33.9166 32.4688 33.7256 32.1122 33.796 31.7275L33.21 31.2803C33.0107 31.19 32.6385 31.5704 32.6729 31.1367C32.8367 30.9824 33.099 30.9007 33.3253 30.9658C33.562 31.1104 33.9065 31.2483 34.0079 31.5068C33.91 31.0571 33.5534 30.5537 33.0655 30.4053ZM35.8389 33.9951C35.486 34.079 34.8853 33.9663 34.9044 34.5986C35.2674 34.6784 35.7213 34.7547 36.1348 34.7461C36.312 34.5075 36.3757 34.3349 36.4005 34.0225L35.8389 33.9951ZM22.5509 26.208C22.5269 28.0748 22.2799 29.7711 22.2559 31.6367C22.1503 32.3129 22.1569 32.976 22.1749 33.6084C22.7649 33.9497 23.4832 33.8913 24.1182 33.9111C26.1735 33.8606 28.2978 34.3005 30.2852 33.6543C30.5583 31.9861 30.4628 30.2005 31.5968 28.8125C32.2876 28.0483 33.3713 28.356 34.2794 28.5107C35.5472 29.9232 35.3099 31.836 35.4298 33.5059C35.8467 33.3913 36.2748 33.6366 36.6895 33.4316L38.8604 27.5127L38.7774 27.25C33.6933 26.7963 28.8092 26.576 23.7218 26.2275L22.5509 26.208ZM10.0714 26.7744C9.81381 26.6981 9.56664 26.9821 9.30085 26.8311C8.54234 26.6599 8.4621 27.5586 8.55867 28.0225L9.9073 27.999C13.0382 27.79 16.1477 27.9313 19.2745 27.6856C19.4708 27.6859 19.7872 27.7482 19.8712 27.958C19.7892 28.0352 19.7482 28.1455 19.6153 28.168C16.1431 28.0908 12.681 28.374 9.20808 28.4932C8.91516 28.5107 8.50528 28.4145 8.35847 28.7178C8.77192 28.9048 9.31623 28.7839 9.78132 28.8291C10.5121 28.6864 10.4816 29.5499 10.9522 29.7764C12.269 29.7412 13.5985 29.8177 14.9239 29.6611C15.1351 29.3285 15.213 28.8752 15.5743 28.668C17.3261 28.614 19.0646 28.5022 20.8419 28.6719C21.0501 28.9798 20.8392 29.3136 20.9512 29.6406C21.2502 29.7496 21.635 29.6759 21.8975 29.9336L21.8389 30.0908C17.3673 30.2542 12.8869 30.2003 8.39949 30.3584C8.20075 30.803 8.60192 31.2186 8.56746 31.6523C11.9239 31.7052 15.2936 31.6723 18.6485 31.7783C18.9849 31.8836 19.605 31.8975 19.6612 32.3291C19.3616 32.4152 18.9186 32.1636 18.546 32.2041L19.0655 32.3955C19.9611 32.7776 20.8001 33.4602 21.7481 33.5049C22.0194 31.1574 22.0131 28.5473 22.0655 26.2627C21.3268 26.135 20.5998 26.3144 19.8712 26.208L10.0714 26.7744ZM9.93953 32.1025L16.4571 32.1543L14.1055 32.041L9.93953 32.1025ZM34.0079 31.5068C34.0229 31.5757 34.0329 31.6431 34.0352 31.708C34.0424 31.6333 34.0314 31.5669 34.0079 31.5068ZM19.6397 29.5166C19.5592 29.5406 19.4231 29.4734 19.377 29.5996L19.6856 29.5869L19.6397 29.5166ZM29.9874 19.8106C29.0609 21.7029 28.472 23.8444 27.6583 25.6719L27.711 25.8701C31.4574 26.1728 35.1917 26.5599 38.9512 26.7783C39.5848 25.2963 40.3007 23.3444 40.8057 21.7256C37.8816 21.2247 35.0136 20.6184 32.2169 20.1104C31.4752 20.0882 30.7797 19.7439 29.9874 19.8106ZM8.72273 25.0469C8.54447 25.3391 8.47979 25.708 8.37117 26.1504C8.48131 26.1912 8.56673 26.204 8.66414 26.1328C8.69979 25.8424 8.90926 25.3656 8.72273 25.0469ZM9.4239 20.75C9.51719 21.1775 9.3057 21.7068 9.40046 22.0811C9.27196 23.3556 9.31976 24.784 9.45613 26.0664C9.52169 24.2329 9.68313 22.3807 9.67976 20.54L9.52253 20.4824L9.4239 20.75ZM21.6651 18.876C20.5451 18.6569 19.4421 18.8456 18.3272 18.9268L18.293 19.0215C18.7088 19.4941 19.8405 18.6963 19.8751 19.6729C19.6634 21.0778 19.8067 22.4883 19.7696 23.9033C20.0577 24.384 19.4473 25.4639 20.4161 25.3545C20.78 25.238 20.4564 24.9058 20.4366 24.666L20.4454 19.2393C20.5314 19.1992 20.589 19.0421 20.7071 19.1563C20.936 20.9186 20.7351 22.6855 20.8048 24.4434C20.7809 24.7027 20.8474 25.1549 21.1163 25.2002C20.923 23.1467 20.9256 21.0941 21.168 19.0215C21.3165 19.0172 21.5365 18.8839 21.6651 18.876ZM11.1964 24.4893C11.9411 24.602 12.8587 24.7779 13.6046 24.4981C12.877 24.3388 12.0555 24.287 11.2706 24.2852L11.1964 24.4893ZM15.4678 21.6104C15.3424 22.4393 15.4164 23.3068 15.377 24.0957C15.4505 23.4082 15.6675 22.7189 15.6192 22.0225C15.5629 21.7883 15.7395 21.745 15.6827 21.5107L15.4678 21.6104ZM11.9356 21.5469C11.7012 21.6023 11.5914 21.3671 11.4063 21.5303C11.313 22.1747 11.2562 22.8154 11.2843 23.4688L13.3096 23.6943C13.9994 23.8578 13.5837 23.0435 13.7208 22.7188C13.6346 22.4191 13.9096 22.0565 13.7218 21.791C13.1665 21.5516 12.5272 21.6387 11.9356 21.5469ZM23.5587 21.8994C23.359 22.0047 23.0027 21.7134 22.9542 22.0879C23.1459 22.2474 23.4059 22.4145 23.7081 22.418L23.7481 22.3086C23.7159 22.1539 23.8726 21.8717 23.5587 21.8994ZM21.7803 22.1221L21.8751 22.1563L21.8389 21.9648L21.7803 22.1221ZM16.8311 21.5928C16.6524 21.5448 16.4041 21.4894 16.3292 21.6943C16.5611 21.7438 16.8425 21.7579 17.0362 21.668L16.8311 21.5928ZM40.753 20.5986C40.3454 20.5915 39.6399 20.083 39.3204 20.6611C39.7025 20.8371 40.1437 20.8033 40.4639 20.9033C40.6511 21.0251 40.802 20.7593 40.753 20.5986ZM38.5655 20.332C38.2898 19.6237 37.4983 20.0292 37.0255 20.0518C37.2971 20.7227 38.0006 20.07 38.5079 20.4883L38.5655 20.332ZM36.0186 19.6299C35.5387 19.7213 34.7429 19.019 34.3331 19.6006L34.4552 19.7529C35.1613 19.5832 35.7702 20.1629 36.4288 20.1191C36.2086 20.0382 36.1183 19.8449 36.0186 19.6299ZM15.4229 19.1992C14.797 19.7375 13.9725 19.4535 13.3135 19.8369C13.6027 19.9252 14.0807 19.8868 14.38 19.9961C14.837 19.9673 15.4127 20.2499 15.6221 19.6299C16.0739 19.4211 16.8252 19.6608 16.9688 19.124C16.4591 19.1517 15.9488 19.1779 15.4229 19.1992ZM32.5635 18.8262C32.2328 18.9015 31.6885 18.2915 31.5479 18.918C31.5876 19.0037 31.5129 19.2084 31.6768 19.1982C32.2957 19.0682 33.1661 19.8149 33.5333 19.0566C33.3321 18.6798 32.8898 18.9103 32.5635 18.8262ZM13.0899 14.8975C12.3298 16.19 11.4501 17.5643 10.9991 18.9883L11.0919 19.0752L16.8594 18.1553L16.9102 17.8701C16.5873 17.1448 17.0378 16.4521 16.752 15.7227C15.6581 15.393 14.3101 15.0769 13.0899 14.8975ZM11.3428 15.667C10.8326 16.7657 10.2437 17.8351 10.0889 18.9395C10.6733 17.8326 11.2551 16.8312 11.3428 15.667ZM21.6651 18.876C21.6881 18.8805 21.7114 18.8848 21.7344 18.8897C21.7168 18.8768 21.693 18.8743 21.6651 18.876ZM29.8751 18.0723C29.7477 18.0794 29.5627 18.0474 29.5626 18.2432C29.6379 18.378 29.713 18.709 29.9532 18.6367L30.0108 18.4795C30.1126 18.302 30.1302 18.059 29.8751 18.0723ZM28.6485 17.9082C28.4037 17.943 28.1923 17.9376 28.1612 18.2656C28.4526 18.4441 28.7942 18.3899 29.0245 18.2959C29.1886 17.9459 28.7343 18.0648 28.6485 17.9082ZM25.9317 17.626C25.801 17.7384 25.65 18.1481 26.001 18.1162C26.6426 17.7802 26.9718 18.6326 27.6134 18.2969C27.6478 18.2025 27.7527 18.0618 27.6583 18.0273C27.1486 17.8581 26.4575 17.7477 25.9317 17.626ZM23.7921 17.127C23.4223 17.0625 23.0601 17.1262 23.0245 17.6133C23.1958 18.2653 24.2046 18.0464 24.8419 18.208C24.8812 17.9549 24.964 17.6813 24.8966 17.4248C24.5325 17.2022 24.1037 17.3482 23.7921 17.127ZM21.8536 14.7188C21.4595 15.3066 21.3299 15.9025 20.92 16.4844C19.9055 16.523 19.2548 16.105 18.2335 16.0166L18.0831 16.0859C17.9524 16.7344 17.9635 17.4349 18.2481 18.0215C19.4563 17.8934 20.6755 17.9306 21.8702 17.8867C22.0485 17.5952 22.2577 17.1714 22.2042 16.8301C21.9209 16.7263 21.4763 16.8669 21.4044 16.4297L21.8536 14.7188ZM30.6534 15.2686C32.2815 15.6515 34.0245 16.2554 35.5001 16.5645C33.9293 15.8812 32.3226 15.6843 30.6534 15.2686ZM27.4288 14.3711L28.2178 14.6065C28.0066 14.4042 27.6363 14.34 27.4288 14.3711Z" fill="black"/>
<path d="M38.8125 41C39.076 41.0001 39.182 41.1501 39.209 41.2471C39.3194 41.5331 40.9846 45.835 41.0215 45.8809V41.8301C41.0215 41.717 41.1125 41.626 41.2256 41.626H43.8604L45.3623 43.0146V41.8301C45.3623 41.717 45.4548 41.626 45.5674 41.626H47.6895C47.8015 41.626 47.8936 41.717 47.8936 41.8301V45.8809C47.8936 45.935 47.8722 45.9871 47.834 46.0254C47.7958 46.0637 47.7435 46.0848 47.6895 46.085H44.916L43.5762 44.6221V45.8809C43.5762 45.9939 43.4846 46.0854 43.3721 46.1016H41.1455C41.1455 46.1016 41.2713 46.3968 41.3252 46.4873C41.379 46.5769 41.4205 46.6133 41.5645 46.6133H48V47.8154L38.8135 47.8135L38.3711 46.0781L36.5752 46.0967L35.958 47.8154H0V46.6133H33.5352L33.8115 46.0957L30.4043 46.0859C30.3503 46.0858 30.299 46.0636 30.2607 46.0254C30.2224 45.9871 30.2002 45.9351 30.2002 45.8809V41.8301C30.2002 41.7171 30.292 41.6262 30.4043 41.626H32.4678C32.5802 41.6261 32.6719 41.717 32.6719 41.8301L32.6885 45.0859C32.6885 45.1525 32.745 45.2069 32.8154 45.207L34.2354 45.1787C34.3188 45.0481 35.3038 42.4174 35.8008 41.1836C35.836 41.1063 35.9673 41.002 36.2314 41.002L38.8125 41ZM4.35645 43.0156V41.8301C4.35646 41.8033 4.36181 41.7767 4.37207 41.752C4.38235 41.7272 4.39801 41.7045 4.41699 41.6855C4.4359 41.6668 4.45876 41.6518 4.4834 41.6416C4.50807 41.6315 4.53486 41.6259 4.56152 41.626H6.68359C6.7103 41.6259 6.73702 41.6315 6.76172 41.6416C6.78639 41.6518 6.80921 41.6667 6.82812 41.6855C6.84702 41.7044 6.86183 41.7273 6.87207 41.752C6.8823 41.7767 6.88771 41.8033 6.8877 41.8301V45.8818C6.8877 45.9086 6.88228 45.9352 6.87207 45.96C6.86183 45.9846 6.84701 46.0075 6.82812 46.0264C6.80921 46.0453 6.78641 46.0601 6.76172 46.0703C6.737 46.0805 6.71034 46.0859 6.68359 46.0859H3.91016L2.57031 44.6221V45.8818C2.57032 45.9086 2.5649 45.9352 2.55469 45.96C2.54445 45.9847 2.5287 46.0074 2.50977 46.0264C2.49098 46.0451 2.46882 46.0601 2.44434 46.0703C2.41968 46.0805 2.3929 46.0859 2.36621 46.0859H0.219727C0.106979 46.0859 0.0157528 45.9948 0.015625 45.8818V41.8301C0.015607 41.8033 0.0210213 41.7767 0.03125 41.752C0.0414931 41.7273 0.0563156 41.7044 0.0751953 41.6855C0.0940955 41.6667 0.116953 41.6518 0.141602 41.6416C0.166272 41.6315 0.19306 41.6259 0.219727 41.626H2.85449L4.35645 43.0156ZM14.2344 41.626C14.3469 41.626 14.4384 41.717 14.4385 41.8301L14.4238 42.373C14.4235 42.4401 14.3094 42.5513 14.2393 42.5518H10.2363C10.2037 42.5511 10.1722 42.5636 10.1484 42.5859C10.1246 42.6086 10.1103 42.64 10.1094 42.6729V43.3232C10.1096 43.3902 10.1661 43.4442 10.2363 43.4443H14.2959C14.3661 43.4443 14.4238 43.4634 14.4238 43.4863V44.3193C14.4232 44.3421 14.3657 44.3604 14.2959 44.3604H10.2363C10.2034 44.3597 10.1713 44.3718 10.1475 44.3945C10.1236 44.4173 10.1102 44.4494 10.1094 44.4824V45.0859C10.1094 45.153 10.1663 45.2078 10.2363 45.208H14.2383C14.3084 45.208 14.4237 45.3195 14.4238 45.3867L14.4385 45.8818C14.4385 45.9086 14.4331 45.9352 14.4229 45.96C14.4126 45.9847 14.3978 46.0074 14.3789 46.0264C14.36 46.0453 14.3372 46.06 14.3125 46.0703C14.2878 46.0806 14.2611 46.0859 14.2344 46.0859H7.73438C7.70768 46.0859 7.68092 46.0805 7.65625 46.0703C7.6316 46.0601 7.60874 46.0452 7.58984 46.0264C7.57089 46.0074 7.55516 45.9847 7.54492 45.96C7.53471 45.9352 7.53027 45.9086 7.53027 45.8818V41.8301C7.53035 41.717 7.62159 41.626 7.73438 41.626H14.2344ZM21.7217 41.626C21.7483 41.626 21.7752 41.6315 21.7998 41.6416C21.8243 41.6517 21.8464 41.6669 21.8652 41.6855C21.8842 41.7045 21.8999 41.7272 21.9102 41.752C21.9204 41.7767 21.9258 41.8033 21.9258 41.8301V45.8818C21.9258 45.9086 21.9204 45.9352 21.9102 45.96C21.8999 45.9847 21.8851 46.0074 21.8662 46.0264C21.8473 46.0453 21.8245 46.0601 21.7998 46.0703C21.7751 46.0805 21.7484 46.0859 21.7217 46.0859H15.2568C15.1441 46.0859 15.0529 45.9948 15.0527 45.8818V41.8301C15.0528 41.8033 15.0581 41.7767 15.0684 41.752C15.0786 41.7273 15.0934 41.7044 15.1123 41.6855C15.1312 41.6668 15.1541 41.6518 15.1787 41.6416C15.2034 41.6315 15.2302 41.6259 15.2568 41.626H21.7217ZM29.3496 41.626C29.3763 41.6259 29.403 41.6314 29.4277 41.6416C29.4524 41.6518 29.4752 41.6667 29.4941 41.6855C29.513 41.7044 29.5279 41.7273 29.5381 41.752C29.5483 41.7767 29.5537 41.8034 29.5537 41.8301V44.1191C29.5536 44.2628 29.4993 44.3105 29.3555 44.3105H25.3672C25.2549 44.3107 25.1643 44.4018 25.1641 44.5146V45.8701C25.1641 46.0199 25.1631 46.0859 24.9414 46.0859H22.7891C22.6763 46.0859 22.5851 45.9948 22.585 45.8818V41.8301C22.585 41.8033 22.5894 41.7767 22.5996 41.752C22.6099 41.7272 22.6255 41.7045 22.6445 41.6855C22.6635 41.6667 22.6863 41.6518 22.7109 41.6416C22.7356 41.6315 22.7624 41.6259 22.7891 41.626H29.3496ZM17.7285 42.5469C17.7002 42.5472 17.6768 42.6028 17.6768 42.6719V45.0967C17.6768 45.1659 17.6999 45.2214 17.7285 45.2217H19.3643C19.3926 45.2214 19.416 45.1659 19.416 45.0967V42.6719C19.416 42.6027 19.3926 42.5471 19.3643 42.5469H17.7285ZM36.8486 45.1816L38.1221 45.1934L37.6807 43.1914L37.4697 43.1836L36.8486 45.1816ZM25.2607 42.5469C25.2324 42.547 25.21 42.6026 25.21 42.6719V43.3027C25.21 43.3715 25.2324 43.4276 25.2607 43.4277H26.8965C26.9247 43.4273 26.9482 43.3713 26.9482 43.3027V42.6719C26.9482 42.6028 26.9245 42.5473 26.8965 42.5469H25.2607Z" fill="black"/>
</g>
<defs>
<clipPath id="clip0_15_39">
<rect width="48" height="48" fill="white"/>
</clipPath>
</defs>
</svg>
