<svg width="48" height="48" viewBox="0 0 48 48" fill="none" xmlns="http://www.w3.org/2000/svg">
<g clip-path="url(#clip0_12_13)">
<path fill-rule="evenodd" clip-rule="evenodd" d="M23.9923 30.9696V37.6393C24.243 37.6393 24.511 37.6565 24.7795 37.6565C35.5336 37.6565 44.3195 29.1943 44.3195 18.8196C44.3195 8.4619 35.5336 0 24.7795 0C14.0258 0 5.22226 8.4619 5.22226 18.8196C5.22226 28.4018 12.7553 36.3467 22.3817 37.5013V35.9502C13.632 34.8131 6.81476 27.5746 6.81476 18.8196C6.81476 9.28937 14.8843 1.53382 24.7795 1.53382C34.6747 1.53382 42.7451 9.2891 42.7451 18.8196C42.7451 28.0918 35.1041 35.6916 25.5851 36.1055V30.9696L24.7795 30.1942L23.9923 30.9696ZM32.6171 15.0801L24.7795 7.5313L16.9422 15.0801H9.08681L24.7792 30.1945L40.4719 15.0801H32.6171ZM32.8095 41.7052H47.285C47.4744 41.7057 47.6559 41.7783 47.7898 41.9073C47.9238 42.0362 47.9993 42.2109 48 42.3933V44.4334C48 44.6745 47.72 44.8384 47.4755 44.8991C47.72 44.9606 48 45.1241 48 45.3653V47.3114C47.9994 47.4938 47.9239 47.6687 47.7899 47.7977C47.656 47.9267 47.4745 47.9994 47.285 48H26.8327C26.7423 48 26.684 47.9597 26.6601 47.9108L24.6448 43.7563C24.6181 43.7012 24.5478 43.6969 24.5152 43.7568L23.6072 45.4107C23.3906 45.8058 23.4318 46.1119 23.8671 46.1119H24.8704C24.9808 46.1119 25.0322 46.1533 25.0676 46.2231L25.608 47.2896C25.7524 47.5735 25.8221 48 25.1423 48H16.8931C16.6662 48 16.4007 47.881 16.2532 47.7161C16.1871 47.8038 16.1005 47.8753 16.0003 47.9246C15.9002 47.9739 15.7893 47.9998 15.6768 48H11.0585C10.7563 48 10.4936 47.6082 10.4936 47.3176V44.3606C10.4932 44.1781 10.4177 44.0033 10.2838 43.8742C10.1499 43.7452 9.96834 43.6725 9.77891 43.672H6.61259C6.42315 43.6725 6.24164 43.7453 6.10769 43.8743C5.97373 44.0033 5.89822 44.1781 5.89763 44.3606V47.3302C5.89763 47.6151 5.64192 48 5.34607 48H0.714965C0.525525 47.9994 0.344013 47.9267 0.210058 47.7977C0.0761035 47.6687 0.000588326 47.4938 0 47.3114V42.3933C0.000662195 42.2109 0.076219 42.0362 0.210174 41.9073C0.344128 41.7783 0.525599 41.7057 0.714965 41.7052H15.6765C15.8659 41.7057 16.0473 41.7784 16.1812 41.9073C16.3151 42.0362 16.3906 42.2109 16.3912 42.3933V45.8579C16.3912 46.0647 16.4743 46.1794 16.5767 46.2067C16.6793 46.2341 16.8014 46.1737 16.8803 46.03L18.8727 42.3933C19.0562 42.0587 19.1942 41.7052 19.5874 41.7052H29.5344C29.9276 41.7052 30.0539 42.0656 30.2494 42.3933L32.4356 46.0679C32.4933 46.1654 32.6257 46.2309 32.7423 46.2301L34.281 46.2239L34.8774 45.2547C34.9494 45.137 35.1019 45.0484 35.2433 45.0484H41.7374C41.8004 45.0483 41.8608 45.0241 41.9054 44.9813C41.95 44.9384 41.9752 44.8803 41.9755 44.8196V43.73C41.9753 43.6692 41.9501 43.611 41.9055 43.568C41.8609 43.5251 41.8004 43.5008 41.7374 43.5006H32.8332C32.6241 43.5006 32.3742 43.2909 32.3742 43.0894V42.1059C32.3742 41.8352 32.4908 41.7052 32.8095 41.7052Z" fill="black"/>
</g>
<defs>
<clipPath id="clip0_12_13">
<rect width="48" height="48" fill="white"/>
</clipPath>
</defs>
</svg>
