<svg width="48" height="48" viewBox="0 0 48 48" fill="none" xmlns="http://www.w3.org/2000/svg">
<path fill-rule="evenodd" clip-rule="evenodd" d="M43.6702 33.1823C46.5871 27.3312 46.1697 18.7598 42.8354 13.3253C39.5027 18.134 34.5004 21.2684 29.4982 23.3581L35.3336 29.6312C35.5416 30.0484 36.1668 30.465 36.5826 30.465C38.2505 30.6754 39.9169 30.465 41.5848 30.0484C42.2101 31.0926 42.8354 32.135 43.6702 33.1823ZM28.665 35.4805C25.956 33.1805 23.8723 30.462 21.5791 27.957C21.3712 28.7926 21.1617 29.4196 20.9538 30.0466C20.119 32.7651 17.8274 35.4823 15.1185 36.3179C12.1999 37.1523 8.65773 36.7351 5.94874 35.6909C9.7004 41.7488 15.7437 45.0949 22.4107 45.7219C31.1646 46.1391 39.0821 41.7488 43.2512 34.2247C39.9169 35.4805 36.7905 36.7333 33.2483 36.9437C31.3725 36.9437 29.9156 36.5247 28.665 35.4805ZM41.7943 11.6529C37.8348 6.00855 31.9994 2.8741 25.5386 2.45569C16.7864 1.82868 8.86721 6.42877 4.69978 14.1609C1.78128 19.8052 1.57339 28.1638 4.69978 33.5995L5.53296 30.257C6.57562 30.6736 7.82616 31.7196 9.07513 31.0926C10.1162 30.6724 9.90833 29.6294 10.3257 28.9994L13.2426 16.8764L13.4505 16.4598H8.24039L7.61506 15.6223L8.65617 11.6511H25.1197L25.7449 12.2781L23.4534 20.4292C25.9529 17.7126 27.6208 14.5763 29.4966 11.6511L41.7943 11.6529ZM46.1697 14.5781C49.9213 23.5667 47.8376 34.6449 40.5438 41.3334C34.291 47.6048 24.2881 49.695 15.7453 46.5593C9.28462 44.4691 3.03344 37.988 1.156 31.5092C-1.97039 21.4764 1.3655 11.0252 9.7004 4.75573C15.7437 -0.0511631 24.9134 -1.30578 32.4152 1.41147C38.2505 3.50111 43.8781 8.9338 46.1697 14.5781Z" fill="black"/>
</svg>
