<svg width="48" height="48" viewBox="0 0 48 48" fill="none" xmlns="http://www.w3.org/2000/svg">
<path d="M24.0037 30.5693C28.9682 30.5693 32.9338 33.7476 33.9327 37.9928C33.9703 37.6347 33.9928 37.2691 33.9928 36.8961C33.9928 31.4348 29.5165 27.0105 23.9962 27.0105C18.476 27.0105 13.9997 31.4348 13.9997 36.8961C13.9997 37.2616 14.0222 37.6272 14.0597 37.9928C15.0662 33.7476 19.0393 30.5693 24.0037 30.5693Z" fill="black"/>
<path d="M24.0038 24.6601C32.4381 24.6601 39.1826 30.4273 40.2041 38C40.2942 37.3061 40.3468 36.5974 40.3468 35.8811C40.3468 26.958 33.0315 19.7211 24.0113 19.7211C14.9836 19.7211 7.67581 26.958 7.67581 35.8811C7.67581 36.5974 7.72088 37.3061 7.81852 38C8.79489 30.4497 15.5694 24.6601 24.0038 24.6601Z" fill="black"/>
<path d="M24.0038 17.1179C36.6515 17.1179 46.8208 26.2797 47.7747 37.9932C47.9249 36.9263 48 35.8444 48 34.7402C48 21.6316 37.2524 11 24.0038 11C10.7476 11 0 21.6316 0 34.7402C0 35.8444 0.0751056 36.9263 0.225317 37.9932C1.2092 26.2946 11.3635 17.1179 24.0038 17.1179Z" fill="black"/>
<path d="M3.2926 45.2135L0 41.1445H2.72926L4.47754 43.4824L6.20154 41.1445H8.9308L5.66249 45.2135V47.6709H3.2926V45.2135Z" fill="black"/>
<path d="M16.3027 45.1986C16.3027 46.9844 14.7196 47.7902 12.3982 47.7902C10.0769 47.7902 8.49373 46.9844 8.49373 45.1986V41.1495H10.8685V44.9101C10.8685 45.7707 11.189 46.5019 12.3982 46.5019C13.6075 46.5019 13.928 45.7707 13.928 44.9101V41.1495H16.3027V45.1986Z" fill="black"/>
<path d="M18.0899 42.4378H15.8948V41.1445H23.1356V42.4378H20.4646V47.6758H18.0899V42.4378Z" fill="black"/>
<path d="M24.4517 44.4127C24.4517 43.2835 25.0247 42.3284 26.467 42.3284C27.9094 42.3284 28.4824 43.2835 28.4824 44.4127C28.4824 45.4871 27.9094 46.4969 26.467 46.4969C25.0296 46.4969 24.4517 45.4871 24.4517 44.4127ZM22.0041 44.4127C22.0041 46.487 23.5581 47.7902 26.467 47.7902C29.376 47.7902 30.93 46.4919 30.93 44.4127C30.93 42.3185 29.4003 41.0351 26.467 41.0351C23.5338 41.0351 22.0041 42.3185 22.0041 44.4127Z" fill="black"/>
<path d="M30.8912 41.1495H33.9167L36.9324 45.5816V41.1495H39.0838V47.6758H36.136L33.0279 43.2138V47.6758H30.8912V41.1495Z" fill="black"/>
<path d="M43.8381 45.069V43.8304H47.9611C47.9854 44.0095 48 44.1985 48 44.3975C48 46.4867 46.4314 47.795 43.503 47.795C40.5795 47.795 39.0109 46.4867 39.0109 44.3975C39.0109 42.2884 40.5504 41 43.503 41C45.7904 41 47.2278 41.771 47.762 43.0992H45.193C44.8822 42.6167 44.3383 42.2983 43.503 42.2983C42.0558 42.2983 41.1477 43.1439 41.1477 44.3975C41.1477 45.651 42.051 46.4967 43.503 46.4967C44.6443 46.4967 45.2465 45.8649 45.4504 45.069H43.8381Z" fill="black"/>
</svg>
