<svg width="48" height="48" viewBox="0 0 48 48" fill="none" xmlns="http://www.w3.org/2000/svg">
<g clip-path="url(#clip0_7_77)">
<path fill-rule="evenodd" clip-rule="evenodd" d="M36.3258 29.3637H11.7161C10.2017 23.4319 9.42342 20.9291 6.12109 15.881L9.781 10.917H38.2612L41.9208 15.881C38.4085 21.2657 37.9244 23.3691 36.3258 29.3637ZM23.0113 13.5042C23.0324 13.5462 22.9062 13.6724 22.8851 13.7145C22.5276 13.6093 22.0648 13.5042 21.6862 13.6935C21.3286 13.8617 20.5504 13.8828 19.9614 14.009L19.8562 14.1141C19.7511 14.3032 19.6669 14.5138 19.688 14.7241C19.688 14.7241 20.5924 14.8083 20.7186 14.8714C20.8448 14.9555 21.1603 15.1027 21.2445 15.3552C21.1814 15.5234 21.0552 15.6707 20.9079 15.8179C20.0456 16.4697 18.7414 17.6478 18.468 18.0685C18.1735 18.4892 17.816 19.0151 17.6898 19.4988C17.5635 20.0036 17.7108 20.2561 17.7949 20.5716C17.0167 20.7188 16.0281 20.8029 15.355 20.8453L15.1867 20.9084C15.1867 21.2239 15.1236 21.5815 15.1867 21.8549C15.9019 22.4018 16.8274 22.8015 17.4373 23.2221C16.1963 24.5683 15.2709 26.1038 13.7985 27.2186C13.2726 27.5341 12.5364 28.2075 12.3261 28.4175C12.1371 28.6065 12.1578 28.7751 12.1578 28.7751C12.3892 28.8382 12.7468 28.7961 12.9782 28.8174C13.3568 28.7964 13.7143 28.4596 13.8826 28.081C14.135 27.9127 14.3243 27.5762 14.6188 27.5131C15.1657 27.2396 15.355 26.6086 15.7126 26.1882C16.0912 25.8303 16.3225 25.3889 16.7432 25.1155C17.3322 24.7576 17.5846 24.0635 18.1525 23.6221L19.099 24.2738C19.5828 24.4631 20.1087 24.2531 20.6345 24.2738L20.8659 24.1266C20.8448 23.8321 20.5714 23.6007 20.34 23.4535C20.0245 23.2221 19.8142 23.6218 19.4987 23.5797C19.2252 23.4745 18.8677 23.5166 18.6783 23.2432C19.1832 22.9487 19.5197 22.528 20.0666 22.3177L20.8869 22.4859C22.5065 22.1915 24.4206 21.918 25.9982 22.1284C26.3975 22.2335 26.692 22.6542 26.9026 22.9908C27.5126 23.9373 26.2292 24.3369 25.8933 25.031C24.8623 26.1456 23.264 26.9451 22.6958 28.4383C22.6748 28.6276 22.6117 28.8379 22.6958 29.0275C23.0534 29.0065 23.3479 28.8382 23.6634 28.712C24.063 28.5647 23.8737 28.3334 23.8948 28.102C23.8737 27.7234 24.1261 27.4289 24.3368 27.1765C24.694 27.3237 24.8413 26.9241 24.9678 26.7138C25.725 25.5148 27.7653 24.5683 28.0174 24.358C28.2695 24.1476 28.3957 24.1266 28.4378 23.9163C28.4799 23.7059 28.1013 23.159 28.1857 22.6121C29.1112 22.8856 30.0367 23.159 30.8777 23.6638C31.656 24.0845 32.0983 24.8628 32.561 25.5782C33.3387 26.7558 34.0121 28.3965 35.1479 28.9437C35.4 29.1119 35.7369 29.1119 35.8628 29.0278C35.7789 28.6071 35.5473 28.2495 35.5262 27.7868C35.4 27.8499 35.2528 27.892 35.1269 27.8499C34.769 27.8289 34.5379 27.4295 34.4748 27.1768C34.4325 26.9454 34.4959 26.6299 34.4959 26.6299C33.9908 26.4616 33.507 25.9358 33.2125 25.5151C32.9391 25.1158 32.4132 24.043 32.4553 23.1173C31.1719 22.8859 30.3311 20.8877 30.226 20.3618C30.1415 19.836 30.2677 19.5625 30.3522 19.1839C29.8471 18.7212 29.2374 18.3636 28.5222 18.2584C27.8278 18.1532 25.1775 18.2164 23.5579 18.4267C23.2003 18.4688 22.7166 18.5529 22.4431 18.2584C22.2959 18.1322 22.2328 17.7536 22.3169 17.5012C22.4011 17.2488 22.8848 16.765 23.0952 16.4495C23.3266 16.134 23.6841 15.4399 23.9576 14.9561C24.1889 15.0402 24.5462 15.1244 24.8617 15.0613C25.1772 14.9982 25.5772 14.872 25.5351 14.6406C25.5141 14.4302 24.652 14.2409 24.1892 14.3671C23.9579 14.3882 23.7052 14.1989 23.6841 13.9465C23.7052 13.8203 23.8314 13.7572 23.9155 13.7151C25.03 13.9465 26.4606 14.0516 27.491 13.8413C28.6271 13.631 29.973 13.2103 30.6674 12.0744C30.2675 12.0113 29.7209 11.9272 29.4892 11.9272C29.1109 12.6213 28.1644 13.2523 27.2599 13.3365C26.8395 13.3785 26.6499 13.1261 26.4182 12.9158C25.8293 13.4416 24.5252 13.4627 23.8734 13.3154C23.2214 13.1472 21.749 12.3479 21.118 11.7589C21.0339 12.0744 20.9497 12.5582 20.9497 12.6844C21.4759 13.0414 23.0113 13.5042 23.0113 13.5042Z" fill="black"/>
<path fill-rule="evenodd" clip-rule="evenodd" d="M18.2367 22.0015C18.4049 22.275 17.9632 22.4433 17.8791 22.6536C17.3953 22.4012 16.8484 22.1698 16.4908 21.686C17.1219 21.686 17.7108 21.7491 18.2367 22.0015Z" fill="black"/>
<path fill-rule="evenodd" clip-rule="evenodd" d="M40.7637 5.99467H37.8611V0L35.3163 1.1779L32.7709 0V1.51473H32.2243V0L29.6789 1.1779L27.1341 0V1.51473H26.5445V0.0213261L23.9997 1.19923L21.4756 0.0213261V1.51473H20.9288V0L18.3836 1.1779L15.8596 0V1.51473H15.2496V0L12.7045 1.1779L10.1594 0V5.99496H7.2567L0 15.9019C5.8264 23.2428 7.42497 30.2894 7.97186 39.8809L24.021 48.0205L40.0278 39.8806C40.5961 27.702 43.6247 21.3915 48 15.9016L40.7637 5.99467ZM35.3165 3.04992L37.1675 2.18753V8.45564H33.4866V2.18753L35.3165 3.04992ZM29.6792 3.02889L31.5301 2.18753V8.45564H27.8492V2.18753L29.6792 3.02889ZM24 3.04992L25.851 2.20856V8.47667H22.17V2.20856L24 3.04992ZM18.3839 3.04992L20.2349 2.18753V8.45564H16.554V2.18753L18.3839 3.04992ZM39.1868 39.3545L24.021 47.0108L8.85557 39.3545C8.30869 29.8471 6.87838 23.2215 1.13612 15.8596L7.71974 6.89913H10.1597V9.17079L15.2499 9.14976V3.26026H15.8599V9.17079H20.929V3.26026H21.4759V9.19183H26.5448V3.26026H27.1343V9.17079H32.2246V3.26026H32.7711V9.17079H37.8614V6.89913H40.3013L46.9062 15.8806C42.573 21.3705 39.7754 27.3231 39.1868 39.3545ZM12.7048 3.04992L14.5558 2.18753V8.45564H10.8538V2.18753L12.7048 3.04992Z" fill="black"/>
<path fill-rule="evenodd" clip-rule="evenodd" d="M11.8423 30.2681C12.2419 31.7194 12.6626 36.8727 12.6626 36.8727L24.042 42.5939L35.4 36.8517C35.4 36.8517 35.6945 32.6659 36.1993 30.2681H11.8423ZM33.4231 36.2417H24.3992L24.231 35.7366H22.5696L22.4224 36.2417H21.3076L22.1489 32.8342H18.9938V36.2417H15.1867V31.4249H26.4398L27.7857 35.1479H29.8894L29.9104 33.97H29.3209L29.7208 32.8342H27.6171V31.446H33.2756V31.7194L32.7079 33.3811H33.4228V36.2417H33.4231Z" fill="black"/>
<path fill-rule="evenodd" clip-rule="evenodd" d="M23.8948 34.6218L23.2848 32.7705L22.822 34.6218H23.8948Z" fill="black"/>
</g>
<defs>
<clipPath id="clip0_7_77">
<rect width="48" height="48" fill="white"/>
</clipPath>
</defs>
</svg>
