<svg width="48" height="48" viewBox="0 0 48 48" fill="none" xmlns="http://www.w3.org/2000/svg">
<path d="M15.7801 0.381737C15.5637 0.593814 15.3544 0.749337 15.3039 0.735198C15.2172 0.699853 14.907 1.22297 14.907 1.40678C14.907 1.49868 14.7122 1.81679 14.5678 1.96524C14.5172 2.01473 14.474 2.1137 14.474 2.17732C14.474 2.30456 14.1493 2.72165 13.7524 3.11045C13.0668 3.76789 11.6452 4.68689 11.3926 4.62327C11.1978 4.57379 11.1329 4.75759 11.2267 5.0757C11.2987 5.33726 11.241 6.00883 11.1472 6.00883C11.1111 6.00883 11.0823 6.06539 11.0823 6.13608C11.0823 6.21384 11.0101 6.32694 10.9308 6.40471C10.8441 6.47541 10.6999 6.65213 10.6132 6.78645C10.4184 7.09042 9.74006 7.77613 9.47307 7.95286C9.36479 8.0165 9.27827 8.10838 9.27827 8.15787C9.27827 8.20028 9.41535 8.34875 9.58135 8.49013C9.86281 8.73048 9.88444 8.7729 9.91323 9.16878C9.94933 9.64947 9.85551 9.88984 9.48753 10.2433C9.35762 10.3776 9.23488 10.5897 9.19162 10.7593C9.15552 10.9219 9.069 12.2651 8.98951 13.7425C8.85244 16.4642 8.83081 16.6267 8.51326 17.3761C8.45553 17.5034 8.41227 17.6731 8.41227 17.7508C8.41227 17.8357 8.36901 17.9982 8.31845 18.1183C7.81327 19.2777 7.68336 20.2745 7.67619 22.9749C7.67619 25.4421 7.89262 26.7711 8.42673 27.5416C8.52055 27.676 8.62154 27.782 8.65034 27.782C8.67926 27.782 9.00398 28.0789 9.37208 28.4395C9.74006 28.8 10.2524 29.2595 10.5122 29.4645C10.7721 29.6695 11.0607 29.9594 11.14 30.1077C11.3277 30.433 11.6379 31.3803 11.6957 31.8256C11.7317 32.1084 11.7895 32.2074 12.0854 32.4618C12.273 32.6315 12.5761 32.8578 12.7493 32.9779C12.9225 33.091 13.0813 33.2041 13.1029 33.2253C13.1823 33.3102 13.8317 33.7202 13.8894 33.7202C14.0771 33.7202 14.7844 34.5684 15.1523 35.2401C15.2606 35.4309 15.4049 35.6784 15.4699 35.7773C15.5348 35.8833 15.6719 36.1025 15.773 36.2651C15.9461 36.5478 16.0544 36.6115 17.6998 37.4103C19.3233 38.1879 19.8141 38.4918 19.8141 38.7181C19.8141 38.8737 20.5718 39.5665 20.911 39.7219C21.3584 39.9199 21.9862 39.9199 22.3976 39.7289C22.7223 39.5735 23.3934 38.8382 23.4655 38.5556C23.5522 38.2232 23.2346 37.3255 23.0254 37.3255C22.9677 37.3255 22.8955 37.283 22.8665 37.2264C22.7584 37.0427 22.2532 36.767 21.9357 36.7175C21.7625 36.6963 21.5965 36.6468 21.5748 36.6115C21.5532 36.5761 21.4739 36.5478 21.3872 36.5478C21.2646 36.5478 21.2501 36.5761 21.2934 36.7034C21.3223 36.7953 21.3511 36.9791 21.3584 37.1134C21.3656 37.2972 21.3368 37.3608 21.2357 37.382C20.9182 37.4456 20.7522 37.3255 20.4275 36.7811C20.2471 36.4772 20.1027 36.1873 20.1027 36.1308C20.1027 36.0035 19.8214 35.4309 19.7347 35.3744C19.6986 35.3531 19.6698 35.2824 19.6698 35.2118C19.6698 35.1411 19.6193 35.0422 19.5615 34.9926C19.5038 34.9431 19.4532 34.8583 19.4532 34.8088C19.4532 34.6179 18.9048 34.1938 18.2625 33.8969C17.678 33.6211 17.5842 33.5575 17.3461 33.19C17.1079 32.8365 17.0863 32.7587 17.1368 32.5325C17.1873 32.2851 17.2017 32.271 17.476 32.2851C17.6276 32.2921 17.8585 32.3487 17.9739 32.4053C18.0965 32.4689 18.2337 32.5184 18.2842 32.5184C18.3347 32.5184 18.5513 32.5961 18.7533 32.688C19.1646 32.8719 19.3378 32.9142 20.0306 33.0202C20.2903 33.0627 20.5862 33.1404 20.6945 33.197C20.7955 33.2465 20.9182 33.296 20.9687 33.296C21.1131 33.296 21.6109 33.7343 21.9213 34.1373C22.0872 34.3564 22.2677 34.5756 22.3182 34.625C22.3687 34.6745 22.4119 34.7452 22.4119 34.7735C22.4119 34.8088 22.6356 34.9714 22.9171 35.1411C23.2779 35.3603 23.5233 35.5865 23.7831 35.9257C23.9779 36.1872 24.1439 36.4135 24.1439 36.4347C24.1439 36.5619 24.8078 37.382 25.046 37.5517C25.5655 37.9051 25.6522 38.0111 25.9119 38.5484C26.0491 38.8454 26.1645 39.1069 26.1645 39.128C26.1645 39.1705 26.417 39.7361 26.6263 40.1531C26.713 40.3228 26.7346 40.3299 27.4273 40.3299C28.0695 40.3228 28.1923 40.3016 28.5242 40.1319C28.7334 40.0259 28.9355 39.941 28.9716 39.941C29.0077 39.941 29.1015 40.047 29.1809 40.1814C29.4479 40.6268 30.2489 40.8317 30.9562 40.6409C31.1942 40.5774 31.2519 40.5844 31.3602 40.6975C31.4901 40.8317 31.7571 41.7296 31.6994 41.8286C31.6778 41.8568 31.6922 41.9558 31.7283 42.0407C31.7861 42.2032 31.8077 42.2032 33.0056 42.2032H34.2179L34.6003 41.8215C34.8169 41.6094 35.0839 41.3973 35.1993 41.3479C35.3364 41.2913 35.4014 41.2136 35.4014 41.1145C35.4014 40.9378 35.0045 40.2945 34.8963 40.2945C34.8602 40.2945 34.8241 40.2521 34.8241 40.2027C34.8169 40.1602 34.7231 39.9906 34.6076 39.835C34.2395 39.3402 33.7416 38.5273 33.7416 38.4212C33.7416 38.3646 33.6984 38.2939 33.6478 38.2656C33.5324 38.202 33.3808 37.799 33.3808 37.5658C33.3808 37.4739 33.3376 37.3749 33.2798 37.3466C33.1571 37.276 32.7025 36.6963 32.5581 36.4135C32.4932 36.3004 32.2911 35.9893 32.1108 35.7348C31.7932 35.2895 31.7716 35.2259 31.7139 34.6179C31.6778 34.2575 31.6056 33.8545 31.5479 33.7202C31.3675 33.2606 31.216 32.7446 31.216 32.6103C31.216 32.5325 31.1654 32.4123 31.1077 32.3346C31.05 32.2639 30.9994 32.1295 30.9994 32.0376C30.9994 31.9387 30.9345 31.8539 30.8262 31.8186C30.6241 31.7408 30.285 31.2954 30.018 30.7581C29.7222 30.1643 29.7077 30.1219 29.6211 29.5493C29.4263 28.2061 29.2242 27.2165 29.1303 27.1246C29.0871 27.0822 29.051 26.962 29.051 26.863C29.051 26.7641 29.0004 26.6156 28.9427 26.5379C28.885 26.4671 28.8346 26.34 28.8346 26.2551C28.8346 26.1773 28.784 26.05 28.7263 25.9723C28.6685 25.9015 28.618 25.7673 28.618 25.6753C28.618 25.534 28.3655 24.9827 28.25 24.8836C28.1778 24.8129 27.8964 24.2403 27.8964 24.1555C27.8964 24.106 27.8603 24.0282 27.817 23.9858C27.7665 23.9363 27.7232 23.5405 27.7087 22.9608C27.6871 21.964 27.5211 20.0624 27.3985 19.4756C27.3552 19.2777 27.2686 18.8183 27.2108 18.4506C27.1242 17.97 27.0232 17.6518 26.8429 17.3337C26.6985 17.0651 26.5975 16.7894 26.5975 16.6409C26.5975 16.4147 26.6263 16.3794 26.9294 16.245C27.1748 16.139 27.3552 16.1107 27.6006 16.139C28.8201 16.2805 29.2963 16.3441 29.7726 16.4501C30.1984 16.549 30.6386 16.5773 31.8654 16.5703C33.2654 16.5703 33.453 16.5561 33.8138 16.4218C34.2685 16.245 34.3189 16.1743 34.0664 16.0613C33.5901 15.8492 34.1025 15.3685 35.0045 15.1776C35.322 15.107 35.7117 15.0221 35.8704 14.9796C36.0292 14.9372 36.2746 14.8807 36.4117 14.8453C37.1045 14.6757 37.6169 14.3787 37.5447 14.1808C37.5157 14.1102 37.4148 14.0678 37.2777 14.0678C37.1188 14.0678 37.0611 14.0323 37.0611 13.9404C37.0611 13.7708 37.2777 13.5729 37.4653 13.5729C37.5374 13.5659 37.6817 13.5234 37.7827 13.4669C37.8838 13.4103 38.0499 13.3678 38.158 13.3608C38.2663 13.3608 38.3673 13.3325 38.3889 13.2972C38.4107 13.2618 38.5333 13.2124 38.6632 13.1912C38.9302 13.1346 39.2188 12.9225 39.4064 12.6327C39.5869 12.357 39.4786 12.2651 39.1107 12.3711C38.8941 12.4347 38.0931 12.4277 35.7262 12.3499C32.3345 12.2439 30.4726 12.2509 29.1954 12.3641C28.2068 12.456 26.8068 12.7246 26.3665 12.9084C25.7242 13.1841 24.4542 13.8061 24.1294 14.0112C23.7398 14.2515 23.6026 14.2515 22.4119 14.0323C21.8491 13.9334 21.5532 13.9193 20.7522 13.9617C19.309 14.0395 19.3017 14.0395 19.1575 13.8627C19.078 13.7708 19.0419 13.6648 19.078 13.6153C19.1069 13.5729 19.1285 12.5054 19.1285 11.2401C19.1285 8.37703 19.0853 8.52547 20.0162 8.46185C20.6872 8.41237 21.4522 8.24977 21.5748 8.1296C21.6109 8.09425 21.7048 8.05891 21.7698 8.05891C21.8347 8.05891 22.0223 7.9246 22.1883 7.75493C22.4769 7.45802 22.5202 7.44389 23.1192 7.36612C24.1655 7.2318 24.9593 7.21767 25.118 7.32371C25.2914 7.45096 25.7603 7.45096 26.0057 7.32371C26.2727 7.18939 26.4892 6.9349 26.5902 6.65213C26.7491 6.17142 26.7491 6.17142 25.9552 6.20678C24.9304 6.25625 24.5624 6.1078 24.714 5.70486C24.8584 5.33726 24.9449 5.31605 26.4099 5.16759C27.0377 5.10397 27.1531 5.06863 27.3335 4.89896C27.6149 4.63741 27.6222 4.2698 27.3408 4.17084C27.2253 4.12842 27.0448 4.05066 26.9294 3.98704C26.7779 3.9022 26.6479 3.88807 26.4242 3.92342C25.515 4.09308 25.0315 3.93755 25.1253 3.50633C25.2047 3.1246 25.3057 3.07511 25.7242 3.20942C26.2583 3.37909 26.3809 3.36494 26.3809 3.11752C26.3809 2.90545 26.2366 2.74286 26.0346 2.71458C25.9624 2.70751 25.7026 2.66509 25.4429 2.62268C25.147 2.57319 24.2883 2.56613 23.1192 2.5944C21.4161 2.63681 21.1924 2.62268 20.4852 2.48836C20.0523 2.4106 19.4172 2.30456 19.0563 2.26215C18.1544 2.14904 17.9378 1.98645 18.1832 1.60471C18.2409 1.51988 18.3059 1.3785 18.3347 1.29367C18.3708 1.15935 18.3564 1.13814 18.2481 1.18056C18.176 1.20177 18.0677 1.26539 18.01 1.3078C17.9017 1.3997 16.8987 1.62592 16.61 1.62592C16.5234 1.62592 16.3936 1.5835 16.3214 1.53402C16.2131 1.45626 16.206 1.38557 16.278 0.834167C16.3502 0.26863 16.3286 0 16.2131 0C16.1842 0 15.9894 0.169661 15.7801 0.381737ZM20.4347 3.0539C20.5501 3.13873 20.6584 3.2165 20.6656 3.22356C20.6801 3.23063 20.7161 3.35081 20.7522 3.4922C20.7955 3.69721 20.781 3.76083 20.6511 3.88099C20.4202 4.09308 20.009 4.13549 19.6337 3.9941C19.0996 3.79617 19.0059 3.55582 19.3378 3.18822C19.6337 2.86303 20.1027 2.80648 20.4347 3.0539ZM18.0388 8.62445C18.1616 8.74461 18.1687 8.80825 18.0894 9.76258C18.0388 10.3211 17.9739 11.1906 17.9307 11.6996C17.8873 12.2015 17.8656 13.4669 17.8873 14.506C17.909 16.3158 17.909 16.4005 17.7791 16.443C17.5409 16.5137 17.3822 16.2945 17.3388 15.8139C17.2956 15.3615 17.209 14.9513 17.0141 14.2868C16.9276 13.9759 16.906 13.481 16.9131 11.7066C16.9203 8.44771 16.9564 8.27805 17.5915 8.4265C17.7575 8.46891 17.9595 8.56081 18.0388 8.62445ZM20.3841 14.81C20.7594 14.8666 21.0986 14.9443 21.1347 14.9796C21.1779 15.0221 21.2718 15.0574 21.3368 15.0574C21.4088 15.0574 21.7119 15.1634 22.0078 15.2977C22.4986 15.5169 22.5635 15.5311 22.6646 15.4392C22.7223 15.3756 22.7729 15.22 22.7729 15.0857C22.7729 14.7251 22.8594 14.7393 24.0717 15.2907C24.3315 15.4109 24.7284 15.6583 24.9593 15.8421C25.4572 16.245 26.1068 17.0086 26.2366 17.3337C26.28 17.461 26.3665 17.6801 26.4242 17.8144C26.5614 18.1608 26.6696 18.8889 26.6696 19.4756C26.6624 19.9139 26.6191 20.2462 26.3882 21.4197C26.3522 21.5965 26.251 21.9146 26.1645 22.1266C26.0779 22.3387 25.9985 22.6215 25.984 22.7487C25.9696 23.0528 25.7171 23.3001 25.2696 23.4486C24.8727 23.5829 24.8439 23.5899 24.5985 23.6041C24.3171 23.6182 24.3026 24.106 24.5841 24.106C24.815 24.106 25.2119 24.2969 25.414 24.509C26.0057 25.124 26.2439 25.7885 25.9696 26.0572C25.7892 26.2338 25.414 26.3681 25.1109 26.3681C24.8727 26.3681 24.7933 26.3187 24.4398 25.937C23.8337 25.2866 23.6316 25.2159 22.9965 25.421C22.7368 25.4987 22.6068 25.5128 22.4553 25.4491C22.2677 25.3785 22.2532 25.3502 22.2893 25.1099C22.3399 24.8059 22.7656 24.3888 23.0325 24.3888C23.1192 24.3888 23.2418 24.311 23.314 24.205C23.4294 24.0282 23.4295 23.9999 23.3212 23.7737C23.2563 23.6465 23.2057 23.5052 23.2057 23.4698C23.2057 23.4345 23.047 23.1729 22.8449 22.8901C22.6501 22.6073 22.4841 22.3458 22.4841 22.3034C22.4841 22.261 22.3976 22.1338 22.2893 22.0136C22.1738 21.9004 22.0223 21.7095 21.9501 21.5965C21.7914 21.3632 21.6254 21.1582 20.4419 19.8292C19.9945 19.3202 19.5976 18.8607 19.5615 18.8041C19.5183 18.7475 19.4677 18.5072 19.4388 18.274C19.41 18.0406 19.3523 17.6236 19.3162 17.355C19.1863 16.4501 19.0853 15.107 19.1357 14.9585C19.2295 14.6687 19.3523 14.6545 20.3841 14.81ZM20.478 21.9711C20.5285 22.0206 20.6152 22.0559 20.6801 22.0559C20.9687 22.0559 21.7625 23.2011 21.7625 23.6112C21.7625 23.8516 21.6254 24.2474 21.5388 24.2474C21.5027 24.2474 21.4739 24.311 21.4739 24.3959C21.4739 24.6008 21.1418 24.9967 20.8244 25.1735C20.5791 25.3078 20.543 25.3644 20.4636 25.7602C20.3698 26.2409 20.2615 26.3964 19.8718 26.5873C19.3884 26.8277 18.7316 26.7145 18.7316 26.3894C18.7316 26.0713 18.9337 25.6966 19.2584 25.4351C19.4461 25.2795 19.5976 25.1099 19.5976 25.0533C19.5976 24.9967 19.6337 24.8907 19.6841 24.82C19.7492 24.714 19.7347 24.6433 19.6048 24.4312C19.511 24.2899 19.4027 24.1838 19.3594 24.1909C19.309 24.198 19.0203 24.0282 18.7172 23.802C18.2698 23.4769 18.1471 23.3496 18.0894 23.1305C17.9523 22.6568 17.9884 22.3034 18.2048 22.0559L18.3996 21.8297L19.3955 21.858C20.0233 21.8793 20.4275 21.9217 20.478 21.9711ZM13.2688 24.1697C13.8678 24.5655 14.9719 25.5551 15.1162 25.8309C15.2678 26.0996 15.5998 26.2762 16.0616 26.3187C16.4946 26.354 17.1946 26.559 17.2595 26.6581C17.2811 26.6934 17.4326 26.7217 17.6059 26.7217C18.01 26.7217 18.176 26.8913 18.1399 27.2588C18.1183 27.5063 18.0822 27.5488 17.6925 27.7678C17.1585 28.0718 16.8121 28.1142 16.0039 27.9729C15.6575 27.9093 15.0296 27.8314 14.6039 27.7961C13.9184 27.7396 13.774 27.7043 13.1967 27.4356C11.8906 26.8205 11.6524 26.4883 11.5441 25.1169C11.5008 24.6221 11.508 24.6008 11.7029 24.4171C11.9122 24.2333 12.5833 23.8233 12.6916 23.8233C12.7204 23.8233 12.9802 23.9788 13.2688 24.1697ZM27.384 28.1214C27.9469 28.4819 28.1707 28.8423 28.5531 30.0441C28.6325 30.2987 28.7479 30.5956 28.8129 30.7158C28.8706 30.8288 29.0726 31.2105 29.2531 31.5641C29.4407 31.9104 29.7222 32.4336 29.8954 32.7163C30.0685 32.9991 30.2056 33.2536 30.2056 33.2819C30.2056 33.3102 30.35 33.5434 30.5232 33.7979C30.7757 34.1867 30.8407 34.3422 30.8768 34.7028C30.9129 35.1058 30.8984 35.1482 30.7396 35.2471C30.3861 35.4804 29.7438 35.3531 29.5129 35.0067C29.4046 34.8512 29.3902 34.6675 29.3902 33.9817C29.4046 33.1687 29.3973 33.1476 29.2098 32.9638C29.1015 32.8578 28.9861 32.7163 28.9427 32.6527C28.5242 31.9458 28.3438 31.7054 27.9541 31.3378C27.7016 31.1045 27.3552 30.843 27.1892 30.7581C26.6118 30.4683 25.9408 29.1534 26.0418 28.5172C26.0634 28.3759 26.1356 28.185 26.2078 28.086C26.3161 27.9163 26.3449 27.9093 26.7562 27.9516C27.0016 27.9799 27.2757 28.0577 27.384 28.1214ZM24.2883 29.2808C24.6995 30.0441 25.1325 30.5673 25.5871 30.843C26.085 31.1328 26.4676 31.4509 26.7201 31.7831C27.0016 32.1437 27.5427 33.3526 27.7232 34.0383C27.8964 34.6958 28.3365 35.5299 28.7695 36.0248C28.8778 36.1519 29.0222 36.4065 29.0943 36.5902C29.1664 36.7811 29.2676 37.0144 29.318 37.1134C29.4334 37.3325 29.4407 37.6224 29.3253 37.7355C29.152 37.9051 28.8778 37.8132 28.0479 37.3255C26.951 36.6751 26.9583 36.6751 26.8788 36.3287C26.8068 36.0176 26.4387 35.6148 25.5655 34.8865C25.1398 34.5402 24.8655 34.1373 24.8655 33.8686C24.8655 33.7979 24.8223 33.7202 24.7645 33.6989C24.714 33.6777 24.6418 33.5717 24.613 33.4587C24.5914 33.3526 24.5408 33.2465 24.5119 33.2253C24.4831 33.2041 24.3676 33.0132 24.2665 32.787C24.0573 32.3629 23.6387 31.9599 22.9171 31.5075C22.7007 31.3731 22.4264 31.1682 22.3109 31.048C22.1306 30.8571 22.1161 30.8005 22.1594 30.5249C22.1883 30.3622 22.2748 30.1007 22.3542 29.9523C22.5418 29.5917 23.047 29.0545 23.1986 29.0545C23.2707 29.0545 23.3862 29.005 23.4655 28.9484C23.5377 28.8919 23.7037 28.8423 23.8264 28.8423C24.0356 28.8423 24.079 28.8848 24.2883 29.2808ZM14.8637 29.9664C15.2101 30.2492 15.7008 31.1328 15.9245 31.868C15.9678 32.0023 16.0761 32.2497 16.177 32.4265C16.2709 32.6032 16.3502 32.7729 16.3502 32.8012C16.3502 32.9849 16.9276 33.6707 17.2884 33.9322C17.9234 34.3775 17.9523 34.8371 17.3533 34.9926C16.8842 35.1199 16.6245 35.0633 16.4946 34.8159C16.4296 34.6958 16.2925 34.4695 16.1842 34.3069C16.0761 34.1373 15.9894 33.9888 15.9894 33.9675C15.9894 33.9464 15.9172 33.8262 15.8307 33.6989C15.2101 32.8295 14.9214 32.4901 14.6616 32.3134C14.5029 32.2003 14.1925 31.9458 13.9906 31.755C13.608 31.4014 13.608 31.3944 13.608 30.9632C13.608 30.1502 13.9545 29.726 14.5462 29.8179C14.6471 29.8392 14.7915 29.9028 14.8637 29.9664ZM31.3747 37.1275C31.6488 37.3466 32.6231 39.128 32.6953 39.5382C32.7314 39.7785 32.7096 39.835 32.4932 40.0471C32.2984 40.238 32.183 40.2945 31.9809 40.2945C31.6706 40.2945 31.584 40.1602 31.584 39.7219C31.584 39.5523 31.5479 39.0857 31.4973 38.6969L31.4108 37.983H31.1222C30.7396 37.983 30.5087 37.7426 30.6602 37.5092C30.718 37.4244 30.7973 37.2902 30.8479 37.1983C30.9417 37.0285 31.1942 36.9932 31.3747 37.1275ZM3 47.187V48L24.4902 47.9859L45.9733 47.9646L45.995 47.2931C46.0166 46.4871 45.9805 46.4235 45.6486 46.5154C45.4826 46.565 38.0354 46.5861 24.4975 46.5861C6.08141 46.5861 3.56287 46.572 3.33917 46.4801C3.19484 46.4235 3.05772 46.3741 3.03608 46.3741C3.01444 46.3741 3 46.7416 3 47.187Z" fill="black"/>
</svg>
