<svg width="48" height="48" viewBox="0 0 48 48" fill="none" xmlns="http://www.w3.org/2000/svg">
<path fill-rule="evenodd" clip-rule="evenodd" d="M24.0094 32.7408L21.6865 31.6901L23.988 23.6986L26.3033 31.6919L24.0094 32.7408ZM18.3304 33.0222H15.7287L13.5705 28.0888H10.3817L8.51407 32.3603L6.64785 28.0888H3.4575L0 35.9999L3.18878 36L5.05273 31.7371L6.92262 35.9999L10.1115 36L11.9766 31.7341L13.8418 36H20.5261L20.8928 34.638L23.9948 35.9999L27.1013 34.6551L27.4633 35.9999L48 36L46.6979 33.0222L44.4508 32.181L45.8429 31.0666L44.5408 28.0888H34.4172L33.0018 31.0666H41.5874L39.5364 32.181L41.4644 33.0077L29.659 33.0222L23.9948 12L18.3304 33.0222Z" fill="black"/>
</svg>
