<svg width="48" height="48" viewBox="0 0 48 48" fill="none" xmlns="http://www.w3.org/2000/svg">
<path d="M48 26.9504L44.2468 21.0248H39.1149H39.0894L35.3362 26.9504C35.3362 26.9752 35.3362 26.9752 35.3617 26.9752H39.217L41.6681 23.0579C41.6681 23.0331 41.6936 23.0331 41.6936 23.0579L44.1447 26.9752H48V26.9504ZM31.0979 26.9752H34.9277C34.9532 26.9752 34.9532 26.9504 34.9532 26.9504L31.1745 21.0248H26.0426H26.017L22.2894 26.9504C22.2894 26.9752 22.2894 26.9752 22.3149 26.9752H29.9234C30.0766 26.9752 30.1787 26.8017 30.1021 26.6777L29.183 25.2149H27.2681C27.2426 25.2149 27.2426 25.1901 27.2426 25.1901L28.5702 23.0579C28.5702 23.0331 28.5957 23.0331 28.5957 23.0579L31.0979 26.9752C31.0723 26.9752 31.0723 26.9752 31.0979 26.9752ZM23.3362 23.1818C23.3106 24.3223 22.2894 25.2149 21.0894 25.2149H16.8C16.8 25.2149 16.7745 25.2149 16.7745 25.2397V26.9752C16.7745 26.9752 16.7745 27 16.7489 27H13.0723C13.0723 27 13.0468 27 13.0468 26.9752V23.4545C13.0468 23.4545 13.0468 23.4298 13.0723 23.4298H19.4298C19.6085 23.4298 19.7617 23.3058 19.7872 23.1322C19.8128 22.9339 19.6596 22.7851 19.4553 22.7851H13.0723C13.0723 22.7851 13.0468 22.7851 13.0468 22.7603V21.0248C13.0468 21.0248 13.0468 21 13.0723 21H21.1404C22.366 21.0248 23.3872 21.9917 23.3362 23.1818ZM8.11915 21.0248L6.15319 23.5041H6.12766L4.1617 21.0248H0.0255319C0 21.0248 0 21.0496 0 21.0496L4.13617 26.0083V26.0331L3.42128 26.9256C3.42128 26.9504 3.42128 26.9504 3.44681 26.9504H7.78723L12.4851 21.0496C12.4851 21.0248 12.4851 21.0248 12.4596 21.0248H8.11915C8.11915 21.0248 8.14468 21.0248 8.11915 21.0248Z" fill="black"/>
</svg>
