<svg width="48" height="48" viewBox="0 0 48 48" fill="none" xmlns="http://www.w3.org/2000/svg">
<path fill-rule="evenodd" clip-rule="evenodd" d="M0 23.9999C0 10.7447 10.7449 0 24.0001 0C37.2553 0 48 10.7447 48 23.9999C48 37.2551 37.2553 48 24.0001 48C10.7449 48 0 37.2551 0 23.9999ZM32.7865 43.2099C30.1111 44.4356 27.1353 45.1194 24.0001 45.1194C15.645 45.1194 8.42422 40.2682 4.99843 33.2287C6.01664 29.5017 8.10586 26.2154 10.9106 23.7189C10.909 23.8241 10.9167 23.9271 10.9167 24.0325C10.9167 34.7138 19.5746 43.3725 30.2568 43.3725C31.1179 43.3725 31.9557 43.319 32.7865 43.2099ZM24.0001 38.4392C34.7589 38.4392 43.4794 29.7184 43.4794 18.9599C43.4794 17.5644 43.3347 16.1954 43.0559 14.882C44.3784 17.6427 45.1203 20.7345 45.1203 23.9999C45.1203 32.513 40.0831 39.8477 32.8276 43.1906C24.1689 41.1176 17.7373 33.3268 17.7373 24.0325C17.7373 18.348 20.1453 13.1894 23.997 9.59336C13.2383 9.59336 4.5177 18.3148 4.5177 29.0727C4.5177 30.4433 4.65697 31.7883 4.92648 33.0791C3.61478 30.3287 2.87994 27.2506 2.87994 23.9999C2.87994 12.336 12.3354 2.88056 24.0001 2.88056C32.3583 2.88056 39.5822 7.73492 43.0055 14.779C41.9895 18.5161 39.8972 21.8117 37.0864 24.3143C37.0879 24.2082 37.0802 24.1062 37.0802 23.9999C37.0802 13.3195 28.4223 4.66071 17.741 4.66071C16.8528 4.66071 15.9895 4.71725 15.133 4.83276C23.8102 6.89316 30.259 14.6923 30.259 23.9999C30.259 29.6852 27.8516 34.8438 24.0001 38.4392Z" fill="black"/>
</svg>
