<svg width="48" height="48" viewBox="0 0 48 48" fill="none" xmlns="http://www.w3.org/2000/svg">
<path fill-rule="evenodd" clip-rule="evenodd" d="M27.0228 20.1748C27.0228 23.2492 27.0228 26.3237 27.0228 29.3983L27.5237 29.8217H35.7448C36.0516 29.8437 36.4417 29.5468 36.6237 29.3051L37.6732 27.627H29.4859L30.0192 26.5155C30.1907 26.2468 30.4268 26.091 30.9699 26.0969L37.9977 26.0958C38.2997 26.0904 38.6992 25.78 38.9318 25.4974L39.9301 23.901H29.5414L30.0746 22.7892C30.2462 22.5205 30.4823 22.3649 31.0254 22.3707L40.2561 22.3694L40.9603 22.0726L42.147 20.1748H27.0228ZM5.85648 20.1748L7.04335 22.0726L7.74749 22.3694L16.9782 22.3707C17.5213 22.3649 17.7574 22.5205 17.9289 22.7892L18.4623 23.901H8.07333L9.07175 25.4974C9.30454 25.78 9.7038 26.0904 10.006 26.0958L17.0337 26.0969C17.5768 26.091 17.8129 26.2468 17.9844 26.5155L18.5177 27.627H10.3305L11.3798 29.3051C11.5619 29.5468 11.952 29.8437 12.2589 29.8217H20.4879L20.9887 29.3983V20.1748H5.85648ZM25.3282 16.3336L23.947 16.3362C23.6093 16.3312 23.1541 16.3514 22.8834 16.472L21.3203 17.1652C21.1214 17.2787 20.9811 17.4675 20.9749 17.8072V18.6432H22.2352C22.389 18.6432 22.5138 18.7678 22.5138 18.9214L22.5217 29.6558C22.5208 30.0383 22.3935 30.247 22.1403 30.4718L21.1279 31.3037C21.0411 31.3808 20.9608 31.4786 20.9665 31.6386V32.5197C20.9569 32.6442 21.0651 32.7606 21.1899 32.7679H26.8217C26.9465 32.7606 27.0544 32.6442 27.0451 32.5197V31.6386C27.0504 31.4786 26.9704 31.3808 26.8837 31.3037L25.8713 30.4718C25.6177 30.247 25.4907 30.0383 25.4899 29.6558L25.4786 16.5215C25.4851 16.4306 25.4442 16.3399 25.3282 16.3336ZM23.947 14.8046H26.7442C26.898 14.8046 27.0228 14.9292 27.0228 15.0828V18.6432H44.9124L42.2603 22.8842C42.0301 23.1646 41.7273 23.4137 41.3831 23.5953L41.1975 23.6694L41.2755 23.7022C41.5642 23.8783 41.6347 24.1304 41.4161 24.4527L40.2318 26.309C39.9282 26.7051 39.4946 27.1279 39.002 27.3851L38.9814 27.3941L39.1713 27.4972C39.3473 27.6648 39.3186 27.9183 39.1961 28.1403L37.9237 30.1166C37.5304 30.7093 36.5544 31.3572 35.7448 31.3532H28.5437L28.5521 31.391C28.573 31.5428 28.5825 31.6992 28.5854 31.8594L28.5851 34.0189C28.5851 34.1727 28.4606 34.2972 28.3068 34.2972H19.7048C19.551 34.2972 19.4262 34.1727 19.4262 34.0189V31.8594C19.429 31.6992 19.4383 31.5428 19.4592 31.391L19.4679 31.3532H12.2589C11.4493 31.3572 10.4732 30.7093 10.0799 30.1166L8.80755 28.1403C8.68504 27.9183 8.65617 27.6648 8.83217 27.4972L9.02222 27.3941L9.00163 27.3851C8.50904 27.1279 8.07538 26.7051 7.7718 26.309L6.58755 24.4527C6.36901 24.1304 6.43927 23.8783 6.72803 23.7022L6.80617 23.6694L6.62056 23.5953C6.27614 23.4137 5.97335 23.1646 5.74341 22.8842L3.09113 18.6432H19.442V17.8072C19.4383 17.1471 20.0885 16.1018 20.7389 15.76L22.2479 15.0782C22.7473 14.8949 23.3724 14.8121 23.947 14.8046ZM24 10.3019C11.4648 10.3019 1.30301 16.4159 1.30301 23.9577C1.30301 31.4997 11.4648 37.6135 24 37.6135C36.5352 37.6135 46.6969 31.4997 46.6969 23.9577C46.6969 16.4159 36.5352 10.3019 24 10.3019ZM24 9C37.2549 9 48 15.6968 48 23.9577C48 32.2186 37.2549 38.9155 24 38.9155C10.7452 38.9155 0 32.2186 0 23.9577C0 15.6968 10.7452 9 24 9Z" fill="black"/>
</svg>
