<svg width="48" height="48" viewBox="0 0 48 48" fill="none" xmlns="http://www.w3.org/2000/svg">
<g clip-path="url(#clip0_7_98)">
<path d="M24 0C10.7815 0 0 10.7077 0 24C0 37.2185 10.7077 48 24 48C37.2185 47.9261 48 37.2185 48 24C48 10.7077 37.2185 0 24 0ZM45.9323 23.9262C45.9323 36.0369 36.1108 45.8585 24 45.9323H23.9262C11.8154 45.9323 1.99384 36.1108 1.99384 24C1.99384 18.1662 4.28307 12.6277 8.41846 8.49231C12.5538 4.35692 18.0923 2.06769 23.9262 2.06769H24C36.1108 1.99385 45.9323 11.8154 45.9323 23.9262Z" fill="black"/>
<path d="M36.8493 12.6279C36.5539 12.6279 36.2585 12.7756 36.037 13.071L19.6431 35.5941C19.2739 36.111 19.2739 36.7756 19.6431 37.2187L22.8185 41.5756C23.1139 41.9449 23.557 42.1664 24.0001 42.1664C24.517 42.1664 24.8862 41.9448 25.1816 41.5756L41.2062 19.5695C41.5754 19.1264 41.5754 18.4618 41.2062 18.0187L37.6616 13.071C37.4401 12.7756 37.1447 12.6279 36.8493 12.6279Z" fill="black"/>
<path d="M32.3446 14.3264L32.8615 13.5879C33.1569 13.2187 32.8615 12.6279 32.3446 12.6279H31.8277H24.5169C23.8523 12.6279 23.2615 12.9233 22.8923 13.4402L13.2185 26.7325C12.8492 27.2495 12.8492 27.8402 13.2185 28.3572L16.4677 32.7879L16.6892 33.0833L17.1323 33.6741C17.4277 34.0433 18.0185 34.0433 18.24 33.6741L18.9046 32.7141L32.3446 14.3264ZM18.4615 33.231C18.5354 33.1572 18.5354 33.1572 18.4615 33.231Z" fill="black"/>
<path d="M19.5693 14.3264L19.6431 14.1787L20.0862 13.5879C20.3816 13.2187 20.0862 12.6279 19.5693 12.6279H18.8308H18.5354H11.52C10.9293 12.6279 10.3385 12.9233 9.96926 13.4402L6.64619 18.0187C6.27696 18.4618 6.27696 19.1264 6.64619 19.5695L9.89542 24.0741L10.56 25.0341C10.8554 25.4033 11.4462 25.4033 11.6677 25.0341L12.3323 24.0741L19.5693 14.3264Z" fill="black"/>
</g>
<defs>
<clipPath id="clip0_7_98">
<rect width="48" height="48" fill="white"/>
</clipPath>
</defs>
</svg>
