<svg width="48" height="48" viewBox="0 0 48 48" fill="none" xmlns="http://www.w3.org/2000/svg">
<path d="M4.36544 23.0884H1.42475V20.0451H0V27.7823H1.42475V24.9287H4.36544V27.7823H5.843V20.0017H4.36544V23.0884ZM38.7117 22.0673C38.2278 20.6886 37.9066 20.0373 37.0517 20.0373C36.1979 20.0373 35.8746 20.6886 35.3886 22.0673C35.1109 22.8537 33.5287 27.5927 33.5121 27.6377L33.4676 27.7745H35.0591C35.0591 27.7745 36.5761 23.107 36.658 22.8537C36.8621 22.2164 36.9067 22.1045 37.0517 22.1045C37.1916 22.1045 37.2341 22.2164 37.4465 22.8661C37.5201 23.107 39.0371 27.7745 39.0371 27.7745H40.6328L40.5862 27.6377C40.5675 27.5927 38.9915 22.8537 38.7117 22.0673ZM33.2303 20.0203L33.2117 20.0731C33.1982 20.1057 32.3019 23.1008 32.1796 23.4723C32.1071 23.6868 31.9558 23.8112 31.7589 23.8112C31.5382 23.8112 31.3445 23.6604 31.2657 23.4272C31.1745 23.1537 30.4492 20.9295 30.2026 20.0794L30.186 20.0203H28.5395L28.5882 20.1493C28.6908 20.4943 30.0088 24.3567 30.1829 24.8369C30.4108 25.4882 30.8667 25.9234 31.36 25.9685L30.8201 27.776H32.3537L34.8146 20.0203H33.2303ZM46.5514 25.2597C46.5514 25.2784 46.539 25.311 46.5173 25.3374C46.4882 25.3639 46.4405 25.3825 46.398 25.3825C46.3089 25.3825 46.2198 25.3173 46.1442 25.1945C45.9421 24.8572 43.388 20.5394 43.2098 20.1042L43.1901 20.0575H40.8845V27.7108H42.3435V22.2615C42.817 23.0558 44.6749 26.1752 45.2396 27.0999C45.5173 27.5414 46.0033 27.8149 46.5131 27.8149C47.1607 27.8149 47.6622 27.3782 47.8653 26.6383C48 26.1503 48 25.1883 48 24.3489V20H46.5514V25.2597ZM19.2221 25.2783C19.2221 25.3048 19.2035 25.3312 19.1817 25.3499C19.1538 25.3825 19.1092 25.4027 19.0626 25.4027C18.9755 25.4027 18.8885 25.3375 18.8149 25.2193C18.6108 24.8821 16.0836 20.6047 15.9012 20.168L15.8846 20.1229H13.5957V27.7093H15.0433V22.3066C15.5127 23.0946 17.3539 26.1876 17.9165 27.0984C18.1901 27.5461 18.6761 27.8134 19.1776 27.8134C19.8149 27.8134 20.3226 27.3782 20.5215 26.6492C20.6573 26.1628 20.6573 25.2131 20.6573 24.3738V20.0575H19.2221V25.2783Z" fill="black"/>
<path fill-rule="evenodd" clip-rule="evenodd" d="M10.4871 25.7793H8.92242C8.1173 25.7793 7.72256 25.156 7.72256 23.8815C7.72256 22.607 8.1173 21.99 8.92242 21.99H10.4871C11.2984 21.99 11.6891 22.607 11.6891 23.8815C11.6891 25.156 11.2984 25.7793 10.4871 25.7793ZM11.0072 20.0005H8.42924C7.27079 20.0005 6.32166 21.4242 6.32166 23.1727V24.5965C6.32166 26.3388 7.27079 27.7625 8.42924 27.7625H11.0072C12.1729 27.7625 13.1138 26.3388 13.1138 24.5965V23.1727C13.1138 21.4242 12.1729 20.0005 11.0072 20.0005ZM21.1462 23.1867V24.6104C21.1462 26.359 22.0892 27.7827 23.2507 27.7827H25.8308C26.9934 27.7827 27.9364 26.359 27.9364 24.6104V22.9069H24.4797V24.8902H26.3935C26.2215 25.501 25.8702 25.7932 25.3117 25.7932H23.7471C22.9388 25.7932 22.5451 25.1762 22.5451 23.8955C22.5451 22.621 22.9388 22.0024 23.7471 22.0024H27.9364V20.0129H23.2507C22.0892 20.0129 21.1462 21.4381 21.1462 23.1867Z" fill="black"/>
</svg>
