<svg width="48" height="48" viewBox="0 0 48 48" fill="none" xmlns="http://www.w3.org/2000/svg">
<path d="M41.1681 34.2155L48 31.6167L29.6185 0L24.0001 4.69397L18.3815 0L0 31.6167L6.87735 34.2325L6.38827 36.8084H3.75637V48H44.2433V36.8085H41.625L41.1681 34.2155ZM42.9899 46.8468H42.8874V46.964H5.12279V46.8468H5.02016V38.3744H7.70135L7.80653 37.8209L8.31215 35.1554L8.63244 33.4665L7.0208 32.8531L2.16922 31.0081L18.7446 2.49749L22.6818 5.78697L24.0051 6.89298L25.3288 5.78697L29.2656 2.49749L45.8409 31.0082L41.037 32.8358L39.4428 33.4415L39.7373 35.1133L40.2102 37.7966L40.312 38.3744H42.9898L42.9899 46.8468Z" fill="black"/>
<path d="M22.467 7.50427L19.1893 4.76562L4.35364 30.2841L8.34156 31.8007L22.5742 23.5863L22.467 7.50427Z" fill="black"/>
<path d="M9.21582 38.1658H38.7946L38.1126 34.2955L24.2149 26.1367L9.94992 34.2955L9.21582 38.1658Z" fill="black"/>
<path d="M43.6568 30.2841L28.821 4.76562L25.5436 7.50427L25.4362 23.5863L39.6689 31.8007L43.6568 30.2841Z" fill="black"/>
<path d="M6.83691 39.646H9.03507V41.6918H11.4369V39.646H13.6447V45.4924H11.4369V43.1275H9.03507V45.4924H6.83691V39.646Z" fill="black"/>
<path d="M15.2264 42.5734C15.2264 41.6188 15.5499 40.8758 16.1969 40.344C16.8438 39.8123 17.7448 39.5464 18.8996 39.5464C20.0835 39.5464 20.9958 39.8076 21.6363 40.33C22.2769 40.8524 22.5972 41.5842 22.5972 42.5255C22.5972 43.2088 22.4573 43.7691 22.1775 44.2063C21.8976 44.6438 21.4933 44.9839 20.9645 45.2272C20.4355 45.4706 19.7764 45.5922 18.9872 45.5922C18.1849 45.5922 17.5209 45.4872 16.9952 45.2771C16.4696 45.0671 16.0433 44.7347 15.7166 44.2801C15.3898 43.8255 15.2264 43.2567 15.2264 42.5734ZM17.4245 42.5813C17.4245 43.1715 17.558 43.5956 17.8247 43.8534C18.0917 44.1113 18.4547 44.2402 18.9141 44.2402C19.3863 44.2402 19.7518 44.114 20.0107 43.8613C20.2695 43.6087 20.399 43.1555 20.399 42.5015C20.399 41.9512 20.2639 41.5491 19.9937 41.2951C19.7236 41.0413 19.3573 40.9143 18.8947 40.9143C18.4514 40.9143 18.0957 41.0433 17.8273 41.301C17.5587 41.559 17.4245 41.9857 17.4245 42.5813Z" fill="black"/>
<path d="M23.2761 39.646H25.3661L26.1178 42.9189L27.2179 39.646H29.2982L30.401 42.9146L31.1536 39.646H33.2306L31.6625 45.4924H29.5069L28.2593 41.8115L27.0164 45.4924H24.8609L23.2761 39.646Z" fill="black"/>
<path d="M33.8999 42.5734C33.8999 41.6188 34.2233 40.8758 34.8703 40.344C35.5173 39.8123 36.4183 39.5464 37.573 39.5464C38.757 39.5464 39.6692 39.8076 40.3098 40.33C40.9504 40.8524 41.2707 41.5842 41.2707 42.5255C41.2707 43.2088 41.1307 43.7691 40.8509 44.2063C40.571 44.6438 40.1668 44.9839 39.6378 45.2272C39.109 45.4706 38.4498 45.5922 37.6606 45.5922C36.8583 45.5922 36.1943 45.4872 35.6687 45.2771C35.1429 45.0671 34.7167 44.7347 34.39 44.2801C34.0632 43.8256 33.8999 43.2567 33.8999 42.5734ZM36.098 42.5813C36.098 43.1715 36.2314 43.5956 36.4982 43.8534C36.7652 44.1113 37.1282 44.2402 37.5876 44.2402C38.0598 44.2402 38.4253 44.114 38.6842 43.8613C38.9429 43.6087 39.0723 43.1555 39.0723 42.5015C39.0723 41.9512 38.9373 41.5491 38.6672 41.2951C38.397 41.0413 38.0307 40.9143 37.5682 40.9143C37.1249 40.9143 36.7692 41.0433 36.5007 41.301C36.2322 41.559 36.098 41.9857 36.098 42.5813Z" fill="black"/>
</svg>
