<svg width="48" height="48" viewBox="0 0 48 48" fill="none" xmlns="http://www.w3.org/2000/svg">
<path fill-rule="evenodd" clip-rule="evenodd" d="M13.0944 14.2617C11.8557 14.2617 10.6269 14.2617 9.38826 14.2617C9.113 14.2617 9.05402 14.2818 9.05402 14.6137V22.358C9.05402 22.881 8.59198 23.4744 7.91366 23.4744L5.57397 23.5046C4.93498 23.5046 4.32548 22.9916 4.32548 22.2474V21.4931C4.32548 21.3422 4.28616 21.2618 4.10921 21.2618H0.216274C0.0491532 21.2618 0 21.3322 0 21.5031V22.4687C0 24.2488 1.58273 26.1799 3.78479 26.1799H9.4669C11.7771 26.1799 13.4286 24.4399 13.4286 22.2574V14.6137C13.4286 14.312 13.3795 14.2617 13.1042 14.2617" fill="black"/>
<path fill-rule="evenodd" clip-rule="evenodd" d="M40.157 14C43.7353 14 46.773 15.7198 47.9232 18.1135C48.1394 18.5661 47.8445 18.5762 47.5889 18.5762H43.3912C43.1553 18.5762 43.0177 18.4756 42.8801 18.2946C42.2607 17.5101 41.2678 16.9971 40.157 16.9971C38.2793 16.9971 36.7556 18.4454 36.7556 20.2357C36.7556 22.0259 38.2793 23.4742 40.157 23.4742C42.0346 23.4742 42.2411 22.9713 42.8604 22.2069C43.0079 22.0158 43.1258 21.8951 43.3912 21.8951H47.6184C47.9133 21.8951 48.1001 21.9756 47.9428 22.3176C46.8025 24.7314 43.7452 26.4613 40.157 26.4613C36.5688 26.4613 31.8894 23.6653 31.8894 20.2256C31.8894 16.7859 35.5857 14 40.157 14Z" fill="black"/>
<path fill-rule="evenodd" clip-rule="evenodd" d="M22.4307 18.3048L17.9086 26.0491C17.8201 26.2 17.8005 26.2 17.6628 26.2H13.6224C13.4455 26.2 13.3668 26.1195 13.4848 25.8782L20.032 14.8752C20.3073 14.4126 20.4744 14.312 20.9168 14.312H24.3771C24.8982 14.312 24.9866 14.3623 25.2717 14.835L31.7305 25.7575C31.9762 26.2 31.9861 26.2 31.4061 26.2H27.9555C27.4935 26.2 27.4148 26.1095 27.2477 25.8178L26.3236 24.2187H20.5137C20.15 24.2187 20.0123 24.279 20.1696 23.9471L21.3493 21.8954C21.5066 21.5735 21.5558 21.5937 21.949 21.5937H24.7802L22.9026 18.3048C22.7649 18.0031 22.5683 18.0232 22.4307 18.3048Z" fill="black"/>
<path d="M35.9015 27.5371V30.4538H37.2483C37.7693 30.4538 38.192 30.313 38.5164 30.0314C38.8408 29.7497 39.008 29.3676 39.008 28.915C39.008 28.4624 38.8605 28.1506 38.5656 27.9092C38.2707 27.6678 37.8381 27.5471 37.2778 27.5471H35.9113L35.9015 27.5371ZM41.2002 34.869H39.8534L38.3886 32.5759C38.0937 32.1133 37.8283 31.8115 37.5825 31.6406C37.3368 31.4796 37.0517 31.3891 36.7076 31.3891H35.8917V34.869H34.7513V26.6118H37.4449C38.3002 26.6118 38.9785 26.8029 39.4602 27.1951C39.9517 27.5874 40.1876 28.1204 40.1876 28.8245C40.1876 29.971 39.5388 30.7153 38.2313 31.0472V31.0773C38.4771 31.1779 38.6836 31.3087 38.8605 31.4897C39.0375 31.6707 39.2636 31.9725 39.5486 32.4049L41.2002 34.8791V34.869ZM26.3559 30.7555C26.3559 31.7512 26.6312 32.5558 27.1719 33.1592C27.7126 33.7627 28.4302 34.0644 29.3051 34.0644C30.1801 34.0644 30.9862 33.7728 31.5269 33.1995C32.0675 32.6161 32.333 31.8115 32.333 30.7756C32.333 29.7397 32.0675 28.8848 31.5465 28.3015C31.0157 27.7181 30.298 27.4265 29.3838 27.4265C28.4695 27.4265 27.7519 27.7282 27.2014 28.3417C26.641 28.9552 26.3658 29.7497 26.3658 30.7454M25.1566 30.836C25.1566 29.5084 25.54 28.4423 26.3166 27.6477C27.0834 26.8632 28.1353 26.4609 29.4526 26.4609C30.7699 26.4609 31.6645 26.8431 32.4116 27.6176C33.1587 28.392 33.5323 29.3977 33.5323 30.6348C33.5323 31.8719 33.1489 33.0386 32.3821 33.823C31.6153 34.6075 30.5929 34.9998 29.3051 34.9998C28.0173 34.9998 27.0441 34.6176 26.2871 33.8432C25.5302 33.0687 25.1566 32.073 25.1566 30.836ZM24.9993 27.5572H22.4532V34.869H21.3128V27.5572H18.7765V26.6118H24.9993V27.5572ZM11.2659 30.7555C11.2659 31.7512 11.5412 32.5558 12.0819 33.1592C12.6225 33.7627 13.3402 34.0644 14.2151 34.0644C15.09 34.0644 15.8961 33.7728 16.4368 33.1995C16.9775 32.6161 17.2429 31.8115 17.2429 30.7756C17.2429 29.7397 16.9775 28.8848 16.4565 28.3015C15.9256 27.7181 15.208 27.4265 14.2937 27.4265C13.3795 27.4265 12.6619 27.7282 12.1113 28.3417C11.551 28.9552 11.2757 29.7497 11.2757 30.7454M10.0764 30.836C10.0764 29.5084 10.4598 28.4423 11.2364 27.6477C12.0032 26.8632 13.0551 26.4609 14.3724 26.4609C15.6897 26.4609 16.5843 26.8431 17.3314 27.6176C18.0785 28.392 18.4521 29.3977 18.4521 30.6348C18.4521 31.8719 18.0687 33.0386 17.3019 33.823C16.5351 34.6075 15.5127 34.9998 14.2249 34.9998C12.9371 34.9998 11.9639 34.6176 11.2069 33.8432C10.45 33.0687 10.0764 32.073 10.0764 30.836ZM7.98248 34.869V29.3977C7.98248 28.9451 8.01197 28.402 8.07095 27.7684H8.04146C7.94315 28.1607 7.85468 28.4423 7.77603 28.6032L4.86617 34.869H4.237L1.33697 28.6535C1.26815 28.5127 1.17968 28.221 1.07154 27.7684H1.03222C1.07154 28.1506 1.0912 28.7138 1.0912 29.438V34.859H0V26.6017H1.54341L4.14853 32.2641C4.34514 32.6966 4.47294 33.0386 4.54175 33.2799H4.58108C4.77769 32.767 4.91532 32.425 4.99396 32.244L7.64824 26.6017H9.113V34.869H7.98248ZM42.0653 33.2699C42.3307 33.4811 42.6748 33.6621 43.1172 33.8029C43.5596 33.9437 43.9724 34.0141 44.3755 34.0141C45.5847 34.0141 46.1843 33.6118 46.1843 32.8072C46.1843 32.0026 46.1155 32.3848 45.9877 32.1937C45.8599 32.0127 45.683 31.8518 45.4569 31.711C45.2308 31.5702 44.808 31.3589 44.1887 31.0673C43.3236 30.665 42.7534 30.2929 42.488 29.9509C42.2128 29.6089 42.0751 29.2066 42.0751 28.7641C42.0751 28.1003 42.3602 27.5673 42.9402 27.175C43.5104 26.7828 44.2379 26.5917 45.1128 26.5917C45.9877 26.5917 46.5972 26.6822 46.9904 26.8834V28.0199C46.4694 27.688 45.8206 27.517 45.0243 27.517C44.228 27.517 44.0707 27.6176 43.7365 27.8288C43.4023 28.0299 43.2351 28.3216 43.2351 28.6836C43.2351 29.0457 43.3531 29.277 43.5792 29.4782C43.8053 29.6793 44.3067 29.961 45.0735 30.313C45.9189 30.6952 46.5087 31.0673 46.843 31.4495C47.1772 31.8317 47.3443 32.2541 47.3443 32.7268C47.3443 33.4308 47.0691 33.9739 46.5186 34.3561C45.9681 34.7383 45.2111 34.9193 44.2379 34.9193C43.2646 34.9193 43.5006 34.8791 43.0484 34.7886C42.5961 34.698 42.2619 34.5874 42.0555 34.4567V33.2699H42.0653Z" fill="black"/>
</svg>
