<svg width="48" height="48" viewBox="0 0 48 48" fill="none" xmlns="http://www.w3.org/2000/svg">
<path fill-rule="evenodd" clip-rule="evenodd" d="M37.0887 7.242H22.4061H22.3941H22.3758C21.2241 7.254 20.2467 7.9851 19.8708 9.0105L14.0781 23.6211C14.0181 23.7744 13.9851 23.94 13.9851 24.1143C13.9851 24.8511 14.5836 25.4496 15.3204 25.4496H15.3324H19.2723H19.3143C20.1144 25.4496 20.6016 26.1474 20.3007 26.9082L16.6557 36.1203C16.2798 37.215 15.3954 38.0121 14.2467 38.0931L14.2377 38.0994H14.0661H14.0541H14.0421H8.0811C4.752 34.3458 2.7279 29.4075 2.7279 23.997C2.7279 12.2556 12.2466 2.7339 23.991 2.7339C28.9293 2.7339 33.4737 4.4181 37.0827 7.242H37.0887ZM11.0736 40.8783H25.4946H25.5069H25.5249C26.6766 40.8663 27.654 40.1352 28.0302 39.1098L33.8226 24.4992C33.8826 24.3459 33.9159 24.1806 33.9159 24.006C33.9159 23.2662 33.3174 22.6707 32.5806 22.6707H32.5683H28.6287H28.5864C27.7986 22.6707 27.2901 21.9939 27.597 21.2211L27.8226 20.6496L31.242 12.003C31.6029 10.9203 32.5023 10.1112 33.651 10.0302L33.66 10.0242H33.8316H33.8436H33.8556H40.0242C43.2873 13.7625 45.2631 18.6495 45.2631 23.997C45.2631 28.4811 43.8738 32.6376 41.5038 36.0693L43.6602 37.7655C46.3941 33.8676 48 29.1219 48 24C48 10.746 37.254 0 24 0C10.746 0 0 10.746 0 24C0 37.254 10.746 48 24 48C29.1219 48 33.8676 46.3941 37.7655 43.6602L36.0723 41.5038C32.6436 43.8738 28.4841 45.2631 24 45.2631C19.1367 45.2631 14.6586 43.6302 11.0766 40.8843L11.0736 40.8783ZM40.839 36.9714L40.833 36.9774C40.7037 36.9624 40.5744 36.9564 40.4421 36.9564C38.5173 36.9564 36.9564 38.5173 36.9564 40.4421C36.9564 40.5744 36.9624 40.7037 36.9774 40.83L36.9714 40.836L38.6646 42.9894C40.2828 41.7384 41.7384 40.2828 42.9894 38.6646L40.836 36.9714H40.839Z" fill="black"/>
</svg>
