<svg width="48" height="46" viewBox="0 0 48 46" fill="none" xmlns="http://www.w3.org/2000/svg">
<path d="M31.1914 3.04035C30.5274 3.22052 29.8797 3.61588 29.1812 3.82892C27.2706 4.41246 24.4548 4.91346 21.9479 4.49636C20.6389 4.27846 19.4395 4.06944 18.3212 3.68739C17.7272 3.45842 17.1328 3.22897 16.5388 3C11.0401 12.409 5.54003 21.8206 0.0414014 31.2296C0.0273198 31.2563 0.0136293 31.2833 0 31.3104C0.193317 31.4586 0.386597 31.6068 0.580366 31.7555C1.34125 32.3252 2.09349 32.97 2.69431 33.6965C3.17047 34.2724 3.71809 34.8037 4.16563 35.4152C5.37771 37.073 6.31053 38.9035 7.00504 41.0775C7.24927 41.8425 7.53857 42.7323 7.56448 43.6659C18.5136 43.6592 29.4654 43.6521 40.4146 43.6455C40.4905 43.2683 40.5664 42.8906 40.6425 42.513C40.8808 41.5886 41.1119 40.6581 41.4507 39.8034C42.091 38.189 42.78 36.6323 43.7306 35.3144C44.119 34.7752 44.5793 34.3008 44.9951 33.7976C45.6281 33.0303 46.9648 31.8805 48 31.553C42.3975 22.0495 36.7939 12.5434 31.1914 3.04035ZM40.2072 38.8733C39.8774 39.8935 39.3371 41.27 39.3162 42.493C29.1271 42.5063 18.9348 42.5196 8.74602 42.5334C8.71644 41.6175 8.42637 40.7562 8.18618 40.0057C7.55079 38.019 6.68483 36.3442 5.57511 34.8289C5.19081 34.3043 4.71872 33.8478 4.31074 33.3525C3.80273 32.7365 3.18599 32.185 2.54925 31.6946C2.33503 31.526 2.12081 31.3573 1.90659 31.1892C6.98364 22.3797 12.0625 13.568 17.1396 4.75902C17.7959 4.99508 18.4527 5.23118 19.109 5.4668C20.2756 5.85244 21.5303 5.94431 22.922 6.15462C23.4542 6.15462 23.9863 6.15462 24.518 6.15462C24.9669 6.12754 25.4162 6.1005 25.8651 6.0734C26.9512 5.88968 27.9827 5.74101 28.9324 5.4264C29.485 5.21739 30.038 5.00838 30.5906 4.79981C35.7232 13.5817 40.8571 22.3664 45.9896 31.1483C43.0515 32.5538 41.256 35.6258 40.2072 38.8733Z" fill="black"/>
<path d="M30.1968 5.73044C29.8884 5.69937 28.9775 6.18085 28.6009 6.29669C27.4411 6.65302 26.2322 6.94636 24.7045 6.9233C24.7045 9.21489 24.7045 11.5073 24.7045 13.7989C24.7045 15.0693 24.5713 16.4122 24.7877 17.5601C24.9738 18.5489 25.0702 19.5131 25.3472 20.4113C26.0831 22.801 27.0491 24.7401 28.4145 26.4778C28.8321 27.0091 29.2913 27.597 29.8239 28.0146C30.4184 28.4809 30.9818 28.9909 31.6269 29.4098C33.1054 30.2321 34.584 31.0547 36.0621 31.877C37.789 32.8409 39.5164 33.8047 41.2433 34.7685C41.4922 34.3914 41.7409 34.0137 41.9897 33.6361C42.7756 32.5618 43.7772 31.3992 44.85 30.6031C39.9657 22.3128 35.0805 14.0203 30.1968 5.73044Z" fill="black"/>
<path d="M15.7306 29.7538C16.4445 29.3145 17.0554 28.7634 17.6994 28.2574C18.3352 27.7574 18.8706 27.0437 19.3572 26.3972C20.8772 24.3786 21.9173 22.0321 22.6528 19.2182C22.8783 18.3537 22.946 17.444 23.1085 16.5086C23.1085 13.334 23.1085 10.1589 23.1085 6.98427C21.6821 7.16264 19.8319 6.63106 18.7978 6.23609C18.4107 6.08787 18.0242 5.93968 17.6371 5.79102C12.7465 14.0813 7.85414 22.3737 2.9635 30.664C3.37781 31.0551 3.79262 31.446 4.20697 31.8369C4.76365 32.511 5.36217 33.1199 5.88566 33.8387C6.10804 34.144 6.41691 34.4711 6.54922 34.8496C8.31754 33.8658 10.0863 32.8815 11.8546 31.8973C13.1462 31.1828 14.4388 30.4683 15.7306 29.7538Z" fill="black"/>
<path d="M32.4143 31.877C29.8919 30.401 27.879 29.3808 23.7097 29.4501C23.4264 29.4704 23.143 29.4909 22.8602 29.5109C22.197 29.6121 21.5334 29.7132 20.8704 29.8144C19.2394 30.2115 17.7853 30.6908 16.3936 31.2902C14.2524 32.4902 12.1102 33.6901 9.96902 34.8901C9.13989 35.3618 8.31076 35.8335 7.48163 36.3056C7.47482 36.3255 7.468 36.3461 7.46118 36.366C8.17202 37.4337 8.52724 38.7232 8.87011 40.1677C8.97022 40.5884 9.09625 41.0787 9.09845 41.5629C18.8864 41.57 28.6781 41.5766 38.4661 41.5832C38.7703 39.6263 39.6004 37.9502 40.3522 36.4267C38.7772 35.5237 37.2017 34.6202 35.6267 33.7173C34.556 33.104 33.485 32.4902 32.4143 31.877Z" fill="black"/>
</svg>
